<svg width="1600" height="760" viewBox="0 0 1600 760" fill="none" xmlns="http://www.w3.org/2000/svg">
<g clip-path="url(#clip0_202_129)">
<path d="M159.612 96.1927C148.231 115.975 147.336 143.962 148.478 173.674C149.586 202.283 151.498 231.966 143.893 254.438C128.216 300.774 82.2814 310.251 36.8931 306.558C-13.8379 302.419 -70.3531 284.064 -115.144 296.034C-137.112 301.908 -155.383 316.729 -160.245 345.155C-164.27 368.71 -156.674 397.445 -142.989 426.611C-135.211 443.182 -126.16 459.295 -116.967 475.362L-121.024 477.845C-123.629 473.294 -126.235 468.742 -128.774 464.19C-143.58 437.739 -158.035 409.688 -164.258 382.422C-171.319 351.451 -165.967 325.758 -153.362 309.907C-137.989 290.554 -113.229 284.879 -87.462 284.513C-62.6335 284.159 -36.0619 288.825 -9.73247 293.076C40.5299 301.198 94.6159 307.541 124.796 272.677C131.856 264.518 137.232 254.177 140.217 241.623C143.175 229.227 143.73 214.987 143.489 200.31C143.022 171.59 139.614 140.734 144.715 115.697C149.983 89.7936 164.043 71.2038 183.944 63.6825C183.968 63.6674 184.002 63.667 184.035 63.6469L188.569 71.0552C176.478 75.5238 166.59 84.0877 159.612 96.1927Z" fill="url(#paint0_linear_202_129)"/>
<path d="M181.881 229.581C158.657 279.693 100.385 281.456 55.587 274.107C32.5296 270.323 8.38977 263.888 -14.9624 257.654C-45.1948 249.584 -76.4525 241.239 -105.562 238.629C-133.974 236.074 -201.206 237.557 -211.808 306.116C-217.902 345.56 -203.858 402.849 -170.063 476.39C-166.889 483.306 -163.579 490.259 -160.253 497.201L-161.089 497.713C-164.469 490.663 -167.825 483.598 -171.054 476.575C-205.049 402.614 -219.167 344.948 -213.01 305.184C-202.313 236.025 -134.662 234.527 -106.074 237.094C-76.8879 239.718 -45.5885 248.058 -15.3137 256.141C8.02139 262.366 32.1359 268.797 55.1426 272.571C99.7299 279.888 157.71 278.163 180.762 228.378C188.976 210.655 192.283 187.64 195.493 165.387C196.834 156.11 198.196 146.739 199.913 137.673L200.959 139.383C199.308 148.208 197.995 157.307 196.695 166.319C193.487 188.65 190.157 211.72 181.881 229.581Z" fill="url(#paint1_linear_202_129)"/>
</g>
<defs>
<linearGradient id="paint0_linear_202_129" x1="234.423" y1="145.965" x2="-171.92" y2="394.697" gradientUnits="userSpaceOnUse">
<stop stop-color="#FF1A56"/>
<stop offset="1" stop-color="#D80B4B"/>
</linearGradient>
<linearGradient id="paint1_linear_202_129" x1="204.379" y1="144.969" x2="-218.544" y2="403.85" gradientUnits="userSpaceOnUse">
<stop stop-color="#FF1A56"/>
<stop offset="1" stop-color="#D80B4B"/>
</linearGradient>
<clipPath id="clip0_202_129">
<rect width="1600" height="760" fill="white"/>
</clipPath>
</defs>
</svg>
