<svg width="114" height="173" viewBox="0 0 114 173" fill="none" xmlns="http://www.w3.org/2000/svg">
<path d="M53.1328 13.5987C52.1995 15.732 47.5328 26.6654 42.9995 37.9987C38.4661 49.332 33.6661 61.332 32.3328 64.6654C22.9995 87.5987 22.9995 87.732 27.3995 83.4654C31.2661 79.9987 33.3995 75.332 45.9328 43.0654C51.2661 29.1987 56.4661 17.9987 57.3995 17.9987C58.1995 17.9987 58.9995 18.7987 58.9995 19.732C58.9995 20.7987 59.7995 23.332 60.8661 25.4654C61.9328 27.5987 66.0661 37.9987 70.1995 48.6654C74.3328 59.332 78.8661 70.6654 80.1995 73.9987C81.6661 77.332 83.5328 81.9987 84.4661 84.532C85.3995 86.932 87.6661 90.932 89.5328 93.1987C91.7995 95.8654 92.0662 96.6654 90.4661 95.332C88.0661 93.4654 87.9328 93.5987 88.8661 95.9987C97.2662 116.532 97.1328 116.265 93.1328 119.465C91.2662 120.932 88.8661 122.932 87.9328 123.732C83.7995 127.865 74.8661 134.265 74.1995 133.732C73.9328 133.332 71.5328 127.999 68.9995 121.999C66.4661 115.865 63.3995 109.865 62.1995 108.532C57.2661 103.065 51.2661 106.532 46.7328 117.465C40.8661 131.865 39.9328 133.999 39.2661 133.999C38.4661 133.999 31.5328 128.665 26.3328 123.999C24.1995 122.132 20.9995 119.599 19.3995 118.399L16.4661 116.399L18.9995 110.932C23.6661 100.665 29.2661 85.332 28.7328 84.6654C27.7995 83.732 20.3328 92.3987 20.3328 94.3987C20.3328 95.332 18.3328 101.065 15.7995 107.065L11.1328 118.132L24.7328 128.932C32.1995 134.799 38.8661 140.132 39.5328 140.799C40.3328 141.465 39.9328 144.132 38.5995 147.332C36.5995 152.399 36.5995 152.799 38.5995 151.065C40.5995 149.465 40.5995 149.599 39.1328 152.265C38.3328 153.999 37.1328 155.332 36.5995 155.332C36.0661 155.332 34.8661 157.065 34.0661 159.332L32.5995 163.332H57.1328H81.7995L78.0661 160.132C76.0661 158.265 74.1995 157.465 73.9328 158.132C73.6661 158.799 65.9328 159.332 56.8661 159.332H40.3328L40.8661 153.999C41.1328 151.065 42.1995 147.599 43.2661 146.265C44.3328 145.065 46.5995 140.132 48.3328 135.332C54.1995 118.932 57.1328 115.865 60.4661 122.399C62.7328 126.665 62.7328 126.665 65.7995 123.865C68.7328 121.332 68.7328 121.332 67.2661 124.265C66.3328 125.865 64.9995 127.332 64.3328 127.599C61.5328 128.532 72.4661 153.999 77.6661 158.665C80.4661 161.199 80.4661 161.065 77.1328 152.132C75.2661 147.065 73.6661 142.665 73.6661 142.132C73.6661 141.599 80.1995 135.999 88.3328 129.599L102.999 117.999L100.866 112.932C96.4662 102.399 94.0662 98.6654 92.3328 99.0654C90.8661 99.4654 90.8661 99.0654 92.1995 97.4654C93.5328 95.8654 92.8662 92.7987 87.9328 80.3987C84.5995 72.132 77.9328 55.0654 72.9995 42.6654C59.2661 8.13202 57.3995 5.46536 53.1328 13.5987Z" fill="white"/>
<path d="M55.5316 56.8C55.1316 57.6 55.9316 59.6 57.5316 61.2L60.465 64L58.865 59.6C57.265 54.9333 56.865 54.6667 55.5316 56.8Z" fill="white"/>
<path d="M51.8005 66.2638C50.4671 69.4638 48.2005 74.9304 46.7338 78.6638C45.2671 82.2638 42.8671 87.8638 41.5338 91.0638C37.6671 99.8638 38.6005 100.797 43.4005 93.0638C45.6671 89.1971 50.4671 81.5971 53.8005 76.1304L60.0671 66.1304L57.0005 63.3304L54.0671 60.6638L51.8005 66.2638Z" fill="white"/>
</svg>
