<svg width="472" height="463" viewBox="0 0 472 463" fill="none" xmlns="http://www.w3.org/2000/svg">
<path d="M0 2.9339C0 6.9339 29.4667 64.9339 38 78.0006C42.6667 85.0672 52.9333 96.4006 67.7333 111.201C80.2667 123.601 91.4667 135.601 92.6667 137.867C94.9333 142.001 94.8 142.001 88.8 151.201C82.2667 161.201 76.4 175.867 72.5333 192.667C68.6667 208.934 68.9333 255.467 73.0667 274.134C78.4 298.801 86.8 319.734 96.8 333.467C99.3333 336.934 101.333 340.001 101.333 340.534C101.333 340.934 96.4 346.001 90.4 351.601C73.7333 367.601 56.6667 387.334 47.0667 401.867C35.4667 419.201 22.1333 448.001 24.5333 450.267C24.9333 450.801 30.9333 448.267 37.6 444.934C44.4 441.467 56.6667 436.001 64.6667 432.667C85.7333 423.867 94.2667 417.734 109.867 400.401C117.333 392.267 126.133 383.334 129.6 380.667L135.867 375.734L147.067 383.201C170.133 398.534 203.2 411.601 231.467 416.534C238 417.734 250.933 418.667 260.133 418.667C287.733 418.667 304.667 413.201 329.733 396.134C337.333 390.934 344.133 386.667 344.8 386.667C345.6 386.667 348.8 389.467 352 392.801C361.467 402.534 383.733 418.934 403.333 430.534C421.333 441.201 470 463.734 471.6 462.134C473.6 460.267 464.533 440.134 451.467 417.334C447.067 409.601 440.667 397.334 437.2 389.867C430.933 376.801 430.533 376.267 417.733 365.867C394.667 347.067 383.333 336.934 382.933 334.667C382.667 333.467 384.667 325.601 387.067 317.201C397.067 284.267 401.333 256.001 401.333 222.667C401.333 198.267 400 184.801 395.733 169.334C392.933 158.534 386.267 143.734 380.8 135.601L377.333 130.534L380 126.934C381.467 124.934 388.667 117.734 396 110.934C411.6 96.4006 415.467 89.4672 420.8 67.3339C422.667 59.2006 425.733 47.8672 427.467 42.0006C429.067 36.2672 430.267 31.2006 430 30.9339C429.067 30.0006 367.2 61.6006 358 67.8672C352.933 71.2006 345.067 77.4672 340.533 81.7339L332.133 89.4672L325.067 85.4672C310.4 77.3339 296.533 74.2672 260.4 71.3339C246.667 70.1339 231.733 68.6672 227.333 68.0006C202.8 64.0006 184.667 69.2006 147.333 90.6672C139.333 95.2006 132.267 99.3339 131.733 99.6006C129.467 100.801 118.8 88.8006 107.733 72.4006C94.2667 52.4006 89.6 48.4006 66 35.8672C58.6667 32.1339 44.9333 24.2672 35.3333 18.6672C14.6667 6.40056 2.93333 0.000561831 1.2 0.000561831C0.533333 0.000561831 0 1.3339 0 2.9339ZM246.4 113.334C253.467 114.134 262.667 115.334 266.667 116.134C276.267 117.867 294.4 123.867 295.467 125.467C296.4 126.934 289.2 136.934 275.467 153.067C270.267 159.201 263.6 167.067 260.667 170.667C249.467 184.001 234.133 200.001 232.533 200.001C228 200.001 166.8 134.801 166.667 129.867C166.667 126.001 189.467 117.201 205.333 114.801C225.333 111.867 230.267 111.734 246.4 113.334ZM348 184.667C354.133 197.467 355.733 203.867 357.467 222.134C359.6 245.601 356.133 272.134 347.867 293.334L343.733 304.134L337.6 300.534C324.8 293.067 310.8 281.334 288.933 259.734C271.333 242.401 266.667 237.067 267.6 235.467C268.267 234.267 283.733 218.267 302 200.001L335.2 166.667L339.067 170.267C341.2 172.401 345.2 178.801 348 184.667ZM164.933 206.267C182 223.734 196 238.534 196 239.334C196 243.201 140.933 304.001 137.467 304.001C132.8 304.001 122.933 286.267 118.4 269.734C116 261.067 115.6 255.467 115.467 236.001C115.467 215.334 115.733 211.334 118.533 201.334C122.533 186.934 128.667 174.667 131.6 174.667C132.933 174.667 147.867 188.934 164.933 206.267ZM251.067 296.267C282.133 325.334 306.933 350.534 306.4 352.401C305.6 354.667 273.867 365.067 259.467 367.467C244.533 370.134 226.4 369.334 215.733 365.734C206.8 362.667 170.8 341.334 170.667 339.067C170.533 334.001 223.733 277.334 228.667 277.334C229.867 277.334 240 285.867 251.067 296.267Z" fill="white"/>
</svg>
