<svg width="597" height="590" viewBox="0 0 597 590" fill="none" xmlns="http://www.w3.org/2000/svg">
<rect width="23" height="9.98586" transform="matrix(-1 0 0 1 387 346.485)" fill="#868686"/>
<path d="M422 378.939L391.257 348.239C388.912 345.898 385.111 345.898 382.766 348.239L379.941 351.061L414.929 386L422 378.939Z" fill="#868686"/>
<rect x="174" y="304" width="54" height="10" fill="#868686"/>
<rect x="209" y="346.488" width="23" height="10" fill="#868686"/>
<path d="M174 378.988L204.746 348.242C207.089 345.899 210.888 345.899 213.231 348.242L216.059 351.071L181.071 386.059L174 378.988Z" fill="#868686"/>
<rect x="368" y="304" width="54" height="10" fill="#868686"/>
<rect x="387" y="272.571" width="30" height="10" transform="rotate(-180 387 272.571)" fill="#868686"/>
<path d="M422 240.071L391.254 270.817C388.911 273.16 385.112 273.16 382.769 270.817L379.941 267.988L414.929 233L422 240.071Z" fill="#868686"/>
<rect width="30" height="9.98586" transform="matrix(1 0 0 -1 209 272.514)" fill="#868686"/>
<path d="M174 240.061L204.743 270.76C207.088 273.102 210.889 273.102 213.234 270.76L216.059 267.939L181.071 233L174 240.061Z" fill="#868686"/>
<path d="M224 280C224 257.908 241.909 240 264 240H333C355.091 240 373 257.908 373 280V290H224V280Z" fill="white"/>
<path d="M224 294H260.5C279.554 294 295 309.446 295 328.5V418C255.788 418 224 386.212 224 347V294Z" fill="white"/>
<path d="M302 328.5C302 309.446 317.446 294 336.5 294H373V347C373 386.212 341.212 418 302 418V328.5Z" fill="white"/>
<path d="M329 235.926C329 228.102 325.892 220.598 320.36 215.066C314.827 209.534 307.324 206.426 299.5 206.426C291.676 206.426 284.173 209.534 278.64 215.066C273.108 220.598 270 228.102 270 235.926L299.5 235.926H329Z" fill="#868686"/>
<rect x="313" y="210.067" width="45.9129" height="8.84121" transform="rotate(-53.8364 313 210.067)" fill="#868686"/>
<rect x="258.138" y="173.426" width="45.9129" height="8.84121" transform="rotate(53.84 258.138 173.426)" fill="#868686"/>
<path d="M559.688 294.769C559.688 436.958 442.75 552.225 298.5 552.225C154.25 552.225 37.3125 436.958 37.3125 294.769C37.3125 152.58 154.25 37.3127 298.5 37.3127C442.75 37.3127 559.688 152.58 559.688 294.769ZM89.3353 294.769C89.3353 408.637 182.982 500.946 298.5 500.946C414.018 500.946 507.665 408.637 507.665 294.769C507.665 180.901 414.018 88.5924 298.5 88.5924C182.982 88.5924 89.3353 180.901 89.3353 294.769Z" fill="url(#paint0_linear_286_2429)"/>
<rect y="321.238" width="52.2375" height="126.863" transform="rotate(-90 0 321.238)" fill="url(#paint1_linear_286_2429)"/>
<rect x="325.238" y="126.863" width="52.2375" height="126.863" transform="rotate(-180 325.238 126.863)" fill="url(#paint2_linear_286_2429)"/>
<rect x="325.238" y="589.863" width="52.2375" height="126.863" transform="rotate(-180 325.238 589.863)" fill="url(#paint3_linear_286_2429)"/>
<rect x="470" y="321.238" width="52.2375" height="126.863" transform="rotate(-90 470 321.238)" fill="url(#paint4_linear_286_2429)"/>
<rect width="23" height="9.98586" transform="matrix(-1 0 0 1 387 346.485)" fill="#868686"/>
<path d="M422 378.939L391.257 348.239C388.912 345.898 385.111 345.898 382.766 348.239L379.941 351.061L414.929 386L422 378.939Z" fill="#868686"/>
<rect x="174" y="304" width="54" height="10" fill="#868686"/>
<rect x="209" y="346.488" width="23" height="10" fill="#868686"/>
<path d="M174 378.988L204.746 348.242C207.089 345.899 210.888 345.899 213.231 348.242L216.059 351.071L181.071 386.059L174 378.988Z" fill="#868686"/>
<rect x="368" y="304" width="54" height="10" fill="#868686"/>
<rect x="387" y="272.571" width="30" height="10" transform="rotate(-180 387 272.571)" fill="#868686"/>
<path d="M422 240.071L391.254 270.817C388.911 273.16 385.112 273.16 382.769 270.817L379.941 267.988L414.929 233L422 240.071Z" fill="#868686"/>
<rect width="30" height="9.98586" transform="matrix(1 0 0 -1 209 272.514)" fill="#868686"/>
<path d="M174 240.061L204.743 270.76C207.088 273.102 210.889 273.102 213.234 270.76L216.059 267.939L181.071 233L174 240.061Z" fill="#868686"/>
<path d="M224 280C224 257.908 241.909 240 264 240H333C355.091 240 373 257.908 373 280V290H224V280Z" fill="white"/>
<path d="M224 294H260.5C279.554 294 295 309.446 295 328.5V418C255.788 418 224 386.212 224 347V294Z" fill="white"/>
<path d="M302 328.5C302 309.446 317.446 294 336.5 294H373V347C373 386.212 341.212 418 302 418V328.5Z" fill="white"/>
<path d="M329 235.926C329 228.102 325.892 220.598 320.36 215.066C314.827 209.534 307.324 206.426 299.5 206.426C291.676 206.426 284.173 209.534 278.64 215.066C273.108 220.598 270 228.102 270 235.926L299.5 235.926H329Z" fill="#868686"/>
<rect x="313" y="210.067" width="45.9129" height="8.84121" transform="rotate(-53.8364 313 210.067)" fill="#868686"/>
<rect x="258.138" y="173.426" width="45.9129" height="8.84121" transform="rotate(53.84 258.138 173.426)" fill="#868686"/>
<path d="M559.688 294.769C559.688 436.958 442.75 552.225 298.5 552.225C154.25 552.225 37.3125 436.958 37.3125 294.769C37.3125 152.58 154.25 37.3127 298.5 37.3127C442.75 37.3127 559.688 152.58 559.688 294.769ZM89.3353 294.769C89.3353 408.637 182.982 500.946 298.5 500.946C414.018 500.946 507.665 408.637 507.665 294.769C507.665 180.901 414.018 88.5924 298.5 88.5924C182.982 88.5924 89.3353 180.901 89.3353 294.769Z" fill="url(#paint5_linear_286_2429)"/>
<rect y="321.238" width="52.2375" height="126.863" transform="rotate(-90 0 321.238)" fill="url(#paint6_linear_286_2429)"/>
<rect x="325.238" y="126.863" width="52.2375" height="126.863" transform="rotate(-180 325.238 126.863)" fill="url(#paint7_linear_286_2429)"/>
<rect x="325.238" y="589.863" width="52.2375" height="126.863" transform="rotate(-180 325.238 589.863)" fill="url(#paint8_linear_286_2429)"/>
<rect x="470" y="321.238" width="52.2375" height="126.863" transform="rotate(-90 470 321.238)" fill="url(#paint9_linear_286_2429)"/>
<defs>
<linearGradient id="paint0_linear_286_2429" x1="298.5" y1="37.3127" x2="298.5" y2="552.225" gradientUnits="userSpaceOnUse">
<stop stop-color="#BA864C"/>
<stop offset="1" stop-color="#50322C"/>
</linearGradient>
<linearGradient id="paint1_linear_286_2429" x1="26.1187" y1="321.238" x2="26.1187" y2="448.1" gradientUnits="userSpaceOnUse">
<stop stop-color="#50322C"/>
<stop offset="0.78125" stop-color="#BA864C"/>
</linearGradient>
<linearGradient id="paint2_linear_286_2429" x1="351.356" y1="126.863" x2="351.356" y2="253.725" gradientUnits="userSpaceOnUse">
<stop stop-color="#50322C"/>
<stop offset="0.78125" stop-color="#BA864C"/>
</linearGradient>
<linearGradient id="paint3_linear_286_2429" x1="351.356" y1="589.863" x2="351.356" y2="716.725" gradientUnits="userSpaceOnUse">
<stop offset="0.729167" stop-color="#50322C"/>
<stop offset="1" stop-color="#BA864C"/>
</linearGradient>
<linearGradient id="paint4_linear_286_2429" x1="496.119" y1="321.238" x2="496.119" y2="448.1" gradientUnits="userSpaceOnUse">
<stop offset="0.145833" stop-color="#50322C"/>
<stop offset="1" stop-color="#BA864C"/>
</linearGradient>
<linearGradient id="paint5_linear_286_2429" x1="298.5" y1="37.3127" x2="298.5" y2="552.225" gradientUnits="userSpaceOnUse">
<stop stop-color="#BA864C"/>
<stop offset="1" stop-color="#50322C"/>
</linearGradient>
<linearGradient id="paint6_linear_286_2429" x1="26.1187" y1="321.238" x2="26.1187" y2="448.1" gradientUnits="userSpaceOnUse">
<stop stop-color="#50322C"/>
<stop offset="0.78125" stop-color="#BA864C"/>
</linearGradient>
<linearGradient id="paint7_linear_286_2429" x1="351.356" y1="126.863" x2="351.356" y2="253.725" gradientUnits="userSpaceOnUse">
<stop stop-color="#50322C"/>
<stop offset="0.78125" stop-color="#BA864C"/>
</linearGradient>
<linearGradient id="paint8_linear_286_2429" x1="351.356" y1="589.863" x2="351.356" y2="716.725" gradientUnits="userSpaceOnUse">
<stop offset="0.729167" stop-color="#50322C"/>
<stop offset="1" stop-color="#BA864C"/>
</linearGradient>
<linearGradient id="paint9_linear_286_2429" x1="496.119" y1="321.238" x2="496.119" y2="448.1" gradientUnits="userSpaceOnUse">
<stop offset="0.145833" stop-color="#50322C"/>
<stop offset="1" stop-color="#BA864C"/>
</linearGradient>
</defs>
</svg>
