<svg width="1214" height="250" viewBox="0 0 1214 250" fill="none" xmlns="http://www.w3.org/2000/svg">
<path d="M381.286 205.796V157.806L331.092 51.5418V50.8073H373.94C379 64.0291 383 74.6392 385.938 82.6376C389.039 90.4727 391.406 96.6756 393.038 101.246C394.834 105.653 396.221 109.244 397.201 112.019C398.18 114.794 399.241 117.733 400.384 120.834H401.363C402.506 117.733 403.567 114.794 404.546 112.019C405.526 109.244 406.832 105.653 408.464 101.246C410.259 96.6756 412.626 90.4727 415.565 82.6376C418.666 74.6392 422.747 64.0291 427.807 50.8073H470.655V51.5418L420.461 157.806V205.796H381.286ZM524.599 205.796H485.423V50.8073H559.367C578.792 50.8073 592.911 55.2146 601.726 64.0291C610.704 72.6804 615.193 85.4942 615.193 102.47C615.193 115.202 612.009 126.139 605.643 135.28C599.277 144.258 590.871 149.889 580.424 152.175L580.179 152.909C584.26 155.521 588.749 159.846 593.646 165.886C598.543 171.926 603.358 178.537 608.092 185.719C612.989 192.738 617.315 199.349 621.069 205.552V205.796H575.527L549.083 166.621C546.798 163.193 544.921 160.744 543.452 159.275C542.146 157.806 540.514 156.908 538.555 156.582C536.759 156.255 533.821 156.092 529.74 156.092H524.599V205.796ZM553.001 82.6376H524.599V124.262H553.001C561.163 124.262 566.794 122.63 569.896 119.365C573.16 116.1 574.793 110.795 574.793 103.45C574.793 96.1043 573.16 90.7992 569.896 87.5346C566.794 84.2699 561.163 82.6376 553.001 82.6376ZM682.411 205.796H643.235V50.8073H712.283C727.79 50.8073 740.195 52.6845 749.5 56.4388C758.804 60.1932 765.496 66.3144 769.577 74.8024C773.658 83.2905 775.698 94.7984 775.698 109.326C775.698 123.038 773.658 134.219 769.577 142.87C765.496 151.358 758.804 157.643 749.5 161.724C740.195 165.804 727.79 167.845 712.283 167.845H682.411V205.796ZM705.916 82.8824H682.411V135.77H705.916C717.506 135.77 725.26 133.811 729.177 129.893C733.095 125.976 735.053 119.12 735.053 109.326C735.053 100.022 733.095 93.3293 729.177 89.2485C725.26 85.0045 717.506 82.8824 705.916 82.8824ZM835.68 205.796H796.505V50.8073H870.449C889.874 50.8073 903.993 55.2146 912.808 64.0291C921.785 72.6804 926.274 85.4942 926.274 102.47C926.274 115.202 923.091 126.139 916.725 135.28C910.359 144.258 901.953 149.889 891.506 152.175L891.261 152.909C895.342 155.521 899.831 159.846 904.728 165.886C909.625 171.926 914.44 178.537 919.174 185.719C924.071 192.738 928.396 199.349 932.151 205.552V205.796H886.609L860.165 166.621C857.88 163.193 856.003 160.744 854.534 159.275C853.228 157.806 851.596 156.908 849.637 156.582C847.841 156.255 844.903 156.092 840.822 156.092H835.68V205.796ZM864.083 82.6376H835.68V124.262H864.083C872.244 124.262 877.876 122.63 880.977 119.365C884.242 116.1 885.874 110.795 885.874 103.45C885.874 96.1043 884.242 90.7992 880.977 87.5346C877.876 84.2699 872.244 82.6376 864.083 82.6376ZM954.317 205.796V50.8073H1069.4V82.6376H993.493V112.019H1059.36V143.85H993.493V173.966H1069.4V205.796H954.317ZM1124.44 205.796V157.806L1074.25 51.5418V50.8073H1117.09C1122.15 64.0291 1126.15 74.6392 1129.09 82.6376C1132.19 90.4727 1134.56 96.6756 1136.19 101.246C1137.99 105.653 1139.37 109.244 1140.35 112.019C1141.33 114.794 1142.39 117.733 1143.54 120.834H1144.52C1145.66 117.733 1146.72 114.794 1147.7 112.019C1148.68 109.244 1149.98 105.653 1151.62 101.246C1153.41 96.6756 1155.78 90.4727 1158.72 82.6376C1161.82 74.6392 1165.9 64.0291 1170.96 50.8073H1213.81V51.5418L1163.61 157.806V205.796H1124.44Z" fill="white"/>
<rect width="9.72248" height="4.22119" transform="matrix(-1 0 0 1 163.591 146.465)" fill="#868686"/>
<path d="M178.386 160.184L165.391 147.206C164.4 146.217 162.793 146.217 161.801 147.206L160.607 148.399L175.397 163.168L178.386 160.184Z" fill="#868686"/>
<rect x="73.5527" y="128.506" width="22.8267" height="4.22716" fill="#868686"/>
<rect x="88.3477" y="146.466" width="9.72248" height="4.22716" fill="#868686"/>
<path d="M73.5527 160.205L86.5495 147.208C87.54 146.217 89.1459 146.217 90.1363 147.208L91.332 148.403L76.5418 163.194L73.5527 160.205Z" fill="#868686"/>
<rect x="155.56" y="128.506" width="22.8267" height="4.22716" fill="#868686"/>
<rect x="163.591" y="115.22" width="12.6815" height="4.22716" transform="rotate(-180 163.591 115.22)" fill="#868686"/>
<path d="M178.386 101.482L165.389 114.479C164.399 115.469 162.793 115.469 161.803 114.479L160.607 113.283L175.397 98.4929L178.386 101.482Z" fill="#868686"/>
<rect width="12.6815" height="4.22119" transform="matrix(1 0 0 -1 88.3477 115.196)" fill="#868686"/>
<path d="M73.5527 101.478L86.5482 114.455C87.5394 115.444 89.1464 115.444 90.1376 114.455L91.332 113.262L76.5418 98.4927L73.5527 101.478Z" fill="#868686"/>
<path d="M94.6885 118.361C94.6885 109.022 102.259 101.452 111.597 101.452H140.765C150.103 101.452 157.673 109.022 157.673 118.361V122.588H94.6885V118.361Z" fill="white"/>
<path d="M94.6885 124.279H110.118C118.172 124.279 124.701 130.808 124.701 138.862V176.695C108.126 176.695 94.6885 163.258 94.6885 146.683V124.279Z" fill="white"/>
<path d="M127.66 138.862C127.66 130.808 134.19 124.279 142.244 124.279H157.673V146.683C157.673 163.258 144.236 176.695 127.66 176.695V138.862Z" fill="white"/>
<path d="M139.074 99.7297C139.074 96.4224 137.76 93.2505 135.421 90.9119C133.083 88.5733 129.911 87.2595 126.603 87.2595C123.296 87.2595 120.124 88.5733 117.786 90.9119C115.447 93.2505 114.133 96.4224 114.133 99.7297L126.603 99.7297H139.074Z" fill="#868686"/>
<rect x="132.31" y="88.7988" width="19.4082" height="3.73732" transform="rotate(-53.8364 132.31 88.7988)" fill="#868686"/>
<rect x="109.119" y="73.3098" width="19.4082" height="3.73732" transform="rotate(53.84 109.119 73.3098)" fill="#868686"/>
<path d="M236.589 124.604C236.589 184.709 187.158 233.435 126.181 233.435C65.2039 233.435 15.7725 184.709 15.7725 124.604C15.7725 64.498 65.2039 15.7727 126.181 15.7727C187.158 15.7727 236.589 64.498 236.589 124.604ZM37.7634 124.604C37.7634 172.738 77.3492 211.758 126.181 211.758C175.012 211.758 214.598 172.738 214.598 124.604C214.598 76.4697 175.012 37.4494 126.181 37.4494C77.3492 37.4494 37.7634 76.4697 37.7634 124.604Z" fill="url(#paint0_linear_477_1211)"/>
<rect y="135.792" width="22.0817" height="53.6269" transform="rotate(-90 0 135.792)" fill="url(#paint1_linear_477_1211)"/>
<rect x="137.483" y="53.627" width="22.0817" height="53.6269" transform="rotate(-180 137.483 53.627)" fill="url(#paint2_linear_477_1211)"/>
<rect x="137.483" y="249.345" width="22.0817" height="53.6269" transform="rotate(-180 137.483 249.345)" fill="url(#paint3_linear_477_1211)"/>
<rect x="198.677" y="135.792" width="22.0817" height="53.6269" transform="rotate(-90 198.677 135.792)" fill="url(#paint4_linear_477_1211)"/>
<rect width="9.72248" height="4.22119" transform="matrix(-1 0 0 1 163.591 146.465)" fill="#868686"/>
<path d="M178.386 160.184L165.391 147.206C164.4 146.217 162.793 146.217 161.801 147.206L160.607 148.399L175.397 163.168L178.386 160.184Z" fill="#868686"/>
<rect x="73.5527" y="128.506" width="22.8267" height="4.22716" fill="#868686"/>
<rect x="88.3477" y="146.466" width="9.72248" height="4.22716" fill="#868686"/>
<path d="M73.5527 160.205L86.5495 147.208C87.54 146.217 89.1459 146.217 90.1363 147.208L91.332 148.403L76.5418 163.194L73.5527 160.205Z" fill="#868686"/>
<rect x="155.56" y="128.506" width="22.8267" height="4.22716" fill="#868686"/>
<rect x="163.591" y="115.22" width="12.6815" height="4.22716" transform="rotate(-180 163.591 115.22)" fill="#868686"/>
<path d="M178.386 101.482L165.389 114.479C164.399 115.469 162.793 115.469 161.803 114.479L160.607 113.283L175.397 98.4929L178.386 101.482Z" fill="#868686"/>
<rect width="12.6815" height="4.22119" transform="matrix(1 0 0 -1 88.3477 115.196)" fill="#868686"/>
<path d="M73.5527 101.478L86.5482 114.455C87.5394 115.444 89.1464 115.444 90.1376 114.455L91.332 113.262L76.5418 98.4927L73.5527 101.478Z" fill="#868686"/>
<path d="M94.6885 118.361C94.6885 109.022 102.259 101.452 111.597 101.452H140.765C150.103 101.452 157.673 109.022 157.673 118.361V122.588H94.6885V118.361Z" fill="white"/>
<path d="M94.6885 124.279H110.118C118.172 124.279 124.701 130.808 124.701 138.862V176.695C108.126 176.695 94.6885 163.258 94.6885 146.683V124.279Z" fill="white"/>
<path d="M127.66 138.862C127.66 130.808 134.19 124.279 142.244 124.279H157.673V146.683C157.673 163.258 144.236 176.695 127.66 176.695V138.862Z" fill="white"/>
<path d="M139.074 99.7297C139.074 96.4224 137.76 93.2505 135.421 90.9119C133.083 88.5733 129.911 87.2595 126.603 87.2595C123.296 87.2595 120.124 88.5733 117.786 90.9119C115.447 93.2505 114.133 96.4224 114.133 99.7297L126.603 99.7297H139.074Z" fill="#868686"/>
<rect x="132.31" y="88.7988" width="19.4082" height="3.73732" transform="rotate(-53.8364 132.31 88.7988)" fill="#868686"/>
<rect x="109.119" y="73.3098" width="19.4082" height="3.73732" transform="rotate(53.84 109.119 73.3098)" fill="#868686"/>
<path d="M236.589 124.604C236.589 184.709 187.158 233.435 126.181 233.435C65.2039 233.435 15.7725 184.709 15.7725 124.604C15.7725 64.498 65.2039 15.7727 126.181 15.7727C187.158 15.7727 236.589 64.498 236.589 124.604ZM37.7634 124.604C37.7634 172.738 77.3492 211.758 126.181 211.758C175.012 211.758 214.598 172.738 214.598 124.604C214.598 76.4697 175.012 37.4494 126.181 37.4494C77.3492 37.4494 37.7634 76.4697 37.7634 124.604Z" fill="url(#paint5_linear_477_1211)"/>
<rect y="135.792" width="22.0817" height="53.6269" transform="rotate(-90 0 135.792)" fill="url(#paint6_linear_477_1211)"/>
<rect x="137.483" y="53.627" width="22.0817" height="53.6269" transform="rotate(-180 137.483 53.627)" fill="url(#paint7_linear_477_1211)"/>
<rect x="137.483" y="249.345" width="22.0817" height="53.6269" transform="rotate(-180 137.483 249.345)" fill="url(#paint8_linear_477_1211)"/>
<rect x="198.677" y="135.792" width="22.0817" height="53.6269" transform="rotate(-90 198.677 135.792)" fill="url(#paint9_linear_477_1211)"/>
<defs>
<linearGradient id="paint0_linear_477_1211" x1="126.181" y1="15.7727" x2="126.181" y2="233.435" gradientUnits="userSpaceOnUse">
<stop stop-color="#ED145B"/>
<stop offset="1" stop-color="#FE0A45"/>
</linearGradient>
<linearGradient id="paint1_linear_477_1211" x1="11.0408" y1="135.792" x2="11.0408" y2="189.419" gradientUnits="userSpaceOnUse">
<stop stop-color="#FF4646"/>
<stop offset="0.78125" stop-color="#ED145B"/>
</linearGradient>
<linearGradient id="paint2_linear_477_1211" x1="148.524" y1="53.627" x2="148.524" y2="107.254" gradientUnits="userSpaceOnUse">
<stop stop-color="#FE0A45"/>
<stop offset="0.78125" stop-color="#ED145B"/>
</linearGradient>
<linearGradient id="paint3_linear_477_1211" x1="148.524" y1="249.345" x2="148.524" y2="302.972" gradientUnits="userSpaceOnUse">
<stop offset="0.729167" stop-color="#FE0A45"/>
<stop offset="1" stop-color="#ED145B"/>
</linearGradient>
<linearGradient id="paint4_linear_477_1211" x1="209.718" y1="135.792" x2="209.718" y2="189.419" gradientUnits="userSpaceOnUse">
<stop offset="0.145833" stop-color="#FE0A45"/>
<stop offset="1" stop-color="#ED145B"/>
</linearGradient>
<linearGradient id="paint5_linear_477_1211" x1="126.181" y1="15.7727" x2="126.181" y2="233.435" gradientUnits="userSpaceOnUse">
<stop stop-color="#ED145B"/>
<stop offset="1" stop-color="#FE0A45"/>
</linearGradient>
<linearGradient id="paint6_linear_477_1211" x1="11.0408" y1="135.792" x2="11.0408" y2="189.419" gradientUnits="userSpaceOnUse">
<stop stop-color="#FF4646"/>
<stop offset="0.78125" stop-color="#ED145B"/>
</linearGradient>
<linearGradient id="paint7_linear_477_1211" x1="148.524" y1="53.627" x2="148.524" y2="107.254" gradientUnits="userSpaceOnUse">
<stop stop-color="#FE0A45"/>
<stop offset="0.78125" stop-color="#ED145B"/>
</linearGradient>
<linearGradient id="paint8_linear_477_1211" x1="148.524" y1="249.345" x2="148.524" y2="302.972" gradientUnits="userSpaceOnUse">
<stop offset="0.729167" stop-color="#FE0A45"/>
<stop offset="1" stop-color="#ED145B"/>
</linearGradient>
<linearGradient id="paint9_linear_477_1211" x1="209.718" y1="135.792" x2="209.718" y2="189.419" gradientUnits="userSpaceOnUse">
<stop offset="0.145833" stop-color="#FE0A45"/>
<stop offset="1" stop-color="#ED145B"/>
</linearGradient>
</defs>
</svg>
