<svg width="2093" height="570" viewBox="0 0 2093 570" fill="none" xmlns="http://www.w3.org/2000/svg">
<path d="M878.666 469.97H789.248V116.209H946.848C982.243 116.209 1010.56 120.493 1031.8 129.063C1053.03 137.632 1068.31 151.603 1077.62 170.977C1086.94 190.351 1091.59 216.618 1091.59 249.777C1091.59 281.074 1086.94 306.595 1077.62 326.342C1068.31 345.716 1053.03 360.06 1031.8 369.375C1010.56 378.689 982.243 383.346 946.848 383.346H878.666V469.97ZM932.317 189.42H878.666V310.135H932.317C958.77 310.135 976.468 305.664 985.41 296.722C994.351 287.78 998.822 272.132 998.822 249.777C998.822 228.541 994.351 213.265 985.41 203.951C976.468 194.264 958.77 189.42 932.317 189.42ZM1228.5 469.97H1139.08V116.209H1307.86C1352.2 116.209 1384.43 126.268 1404.55 146.387C1425.04 166.134 1435.28 195.381 1435.28 234.129C1435.28 263.19 1428.02 288.153 1413.49 309.017C1398.96 329.509 1379.77 342.363 1355.92 347.579L1355.37 349.255C1364.68 355.217 1374.93 365.09 1386.1 378.875C1397.28 392.661 1408.27 407.75 1419.08 424.143C1430.25 440.164 1440.13 455.253 1448.7 469.411V469.97H1344.75L1284.39 380.552C1279.17 372.728 1274.89 367.139 1271.54 363.786C1268.55 360.433 1264.83 358.384 1260.36 357.638C1256.26 356.893 1249.55 356.521 1240.24 356.521H1228.5V469.97ZM1293.33 188.861H1228.5V283.868H1293.33C1311.96 283.868 1324.81 280.142 1331.89 272.691C1339.34 265.239 1343.07 253.131 1343.07 236.365C1343.07 219.599 1339.34 207.49 1331.89 200.038C1324.81 192.587 1311.96 188.861 1293.33 188.861ZM1499.29 469.97V116.209H1761.96V188.861H1588.71V255.925H1739.04V328.577H1588.71V397.318H1761.96V469.97H1499.29ZM1887.59 469.97V360.433L1773.02 117.885V116.209H1870.83C1882.38 146.387 1891.5 170.605 1898.21 188.861C1905.29 206.745 1910.69 220.903 1914.42 231.335C1918.52 241.394 1921.68 249.591 1923.92 255.925C1926.15 262.259 1928.58 268.965 1931.18 276.044H1933.42C1936.03 268.965 1938.45 262.259 1940.68 255.925C1942.92 249.591 1945.9 241.394 1949.63 231.335C1953.72 220.903 1959.13 206.745 1965.83 188.861C1972.91 170.605 1982.23 146.387 1993.78 116.209H2091.58V117.885L1977.01 360.433V469.97H1887.59Z" fill="white"/>
<rect width="22.1915" height="9.63483" transform="matrix(-1 0 0 1 373.396 334.306)" fill="#868686"/>
<path d="M407.166 365.618L377.504 335.998C375.241 333.739 371.573 333.739 369.311 335.998L366.585 338.72L400.343 372.431L407.166 365.618Z" fill="#868686"/>
<rect x="167.883" y="293.313" width="52.1018" height="9.64847" fill="#868686"/>
<rect x="201.653" y="334.309" width="22.1915" height="9.64847" fill="#868686"/>
<path d="M167.883 365.666L197.548 336.001C199.809 333.74 203.475 333.74 205.735 336.001L208.464 338.73L174.706 372.489L167.883 365.666Z" fill="#868686"/>
<rect x="355.064" y="293.313" width="52.1018" height="9.64847" fill="#868686"/>
<rect x="373.396" y="262.989" width="28.9454" height="9.64847" transform="rotate(-180 373.396 262.989)" fill="#868686"/>
<path d="M407.166 231.632L377.501 261.297C375.24 263.558 371.574 263.558 369.314 261.297L366.585 258.568L400.343 224.809L407.166 231.632Z" fill="#868686"/>
<rect width="28.9454" height="9.63483" transform="matrix(1 0 0 -1 201.653 262.936)" fill="#868686"/>
<path d="M167.883 231.623L197.546 261.243C199.808 263.502 203.476 263.502 205.738 261.243L208.464 258.521L174.706 224.81L167.883 231.623Z" fill="#868686"/>
<path d="M216.126 270.157C216.126 248.843 233.405 231.563 254.72 231.563H321.294C342.609 231.563 359.888 248.843 359.888 270.157V279.806H216.126V270.157Z" fill="white"/>
<path d="M216.126 283.665H251.343C269.727 283.665 284.63 298.568 284.63 316.952V403.306V403.306C246.796 403.306 216.126 372.636 216.126 334.802V283.665Z" fill="white"/>
<path d="M291.384 316.952C291.384 298.568 306.287 283.665 324.671 283.665H359.888V334.802C359.888 372.636 329.218 403.306 291.384 403.306V403.306V316.952Z" fill="white"/>
<path d="M317.435 227.632C317.435 220.083 314.436 212.843 309.098 207.506C303.76 202.168 296.521 199.169 288.972 199.169C281.423 199.169 274.183 202.168 268.845 207.506C263.508 212.843 260.509 220.083 260.509 227.632L288.972 227.632H317.435Z" fill="#868686"/>
<rect x="301.997" y="202.683" width="44.299" height="8.53042" transform="rotate(-53.8364 301.997 202.683)" fill="#868686"/>
<rect x="249.064" y="167.329" width="44.299" height="8.53042" transform="rotate(53.84 249.064 167.329)" fill="#868686"/>
<path d="M540.013 284.407C540.013 421.598 427.186 532.813 288.007 532.813C148.828 532.813 36.0009 421.598 36.0009 284.407C36.0009 147.216 148.828 36.001 288.007 36.001C427.186 36.001 540.013 147.216 540.013 284.407ZM86.1949 284.407C86.1949 394.272 176.549 483.336 288.007 483.336C399.465 483.336 489.819 394.272 489.819 284.407C489.819 174.542 399.465 85.478 288.007 85.478C176.549 85.478 86.1949 174.542 86.1949 284.407Z" fill="url(#paint0_linear_286_2341)"/>
<rect y="309.945" width="50.4012" height="122.403" transform="rotate(-90 0 309.945)" fill="url(#paint1_linear_286_2341)"/>
<rect x="313.805" y="122.402" width="50.4012" height="122.403" transform="rotate(-180 313.805 122.402)" fill="url(#paint2_linear_286_2341)"/>
<rect x="313.805" y="569.127" width="50.4012" height="122.403" transform="rotate(-180 313.805 569.127)" fill="url(#paint3_linear_286_2341)"/>
<rect x="453.478" y="309.945" width="50.4012" height="122.403" transform="rotate(-90 453.478 309.945)" fill="url(#paint4_linear_286_2341)"/>
<rect width="22.1915" height="9.63483" transform="matrix(-1 0 0 1 373.396 334.306)" fill="#868686"/>
<path d="M407.166 365.618L377.504 335.998C375.241 333.739 371.573 333.739 369.311 335.998L366.585 338.72L400.343 372.431L407.166 365.618Z" fill="#868686"/>
<rect x="167.883" y="293.313" width="52.1018" height="9.64847" fill="#868686"/>
<rect x="201.653" y="334.309" width="22.1915" height="9.64847" fill="#868686"/>
<path d="M167.883 365.666L197.548 336.001C199.809 333.74 203.475 333.74 205.735 336.001L208.464 338.73L174.706 372.489L167.883 365.666Z" fill="#868686"/>
<rect x="355.064" y="293.313" width="52.1018" height="9.64847" fill="#868686"/>
<rect x="373.396" y="262.989" width="28.9454" height="9.64847" transform="rotate(-180 373.396 262.989)" fill="#868686"/>
<path d="M407.166 231.632L377.501 261.297C375.24 263.558 371.574 263.558 369.314 261.297L366.585 258.568L400.343 224.809L407.166 231.632Z" fill="#868686"/>
<rect width="28.9454" height="9.63483" transform="matrix(1 0 0 -1 201.653 262.936)" fill="#868686"/>
<path d="M167.883 231.623L197.546 261.243C199.808 263.502 203.476 263.502 205.738 261.243L208.464 258.521L174.706 224.81L167.883 231.623Z" fill="#868686"/>
<path d="M216.126 270.157C216.126 248.843 233.405 231.563 254.72 231.563H321.294C342.609 231.563 359.888 248.843 359.888 270.157V279.806H216.126V270.157Z" fill="white"/>
<path d="M216.126 283.665H251.343C269.727 283.665 284.63 298.568 284.63 316.952V403.306V403.306C246.796 403.306 216.126 372.636 216.126 334.802V283.665Z" fill="white"/>
<path d="M291.384 316.952C291.384 298.568 306.287 283.665 324.671 283.665H359.888V334.802C359.888 372.636 329.218 403.306 291.384 403.306V403.306V316.952Z" fill="white"/>
<path d="M317.435 227.632C317.435 220.083 314.436 212.843 309.098 207.506C303.76 202.168 296.521 199.169 288.972 199.169C281.423 199.169 274.183 202.168 268.845 207.506C263.508 212.843 260.509 220.083 260.509 227.632L288.972 227.632H317.435Z" fill="#868686"/>
<rect x="301.997" y="202.683" width="44.299" height="8.53042" transform="rotate(-53.8364 301.997 202.683)" fill="#868686"/>
<rect x="249.064" y="167.329" width="44.299" height="8.53042" transform="rotate(53.84 249.064 167.329)" fill="#868686"/>
<path d="M540.013 284.407C540.013 421.598 427.186 532.813 288.007 532.813C148.828 532.813 36.0009 421.598 36.0009 284.407C36.0009 147.216 148.828 36.001 288.007 36.001C427.186 36.001 540.013 147.216 540.013 284.407ZM86.1949 284.407C86.1949 394.272 176.549 483.336 288.007 483.336C399.465 483.336 489.819 394.272 489.819 284.407C489.819 174.542 399.465 85.478 288.007 85.478C176.549 85.478 86.1949 174.542 86.1949 284.407Z" fill="url(#paint5_linear_286_2341)"/>
<rect y="309.945" width="50.4012" height="122.403" transform="rotate(-90 0 309.945)" fill="url(#paint6_linear_286_2341)"/>
<rect x="313.805" y="122.402" width="50.4012" height="122.403" transform="rotate(-180 313.805 122.402)" fill="url(#paint7_linear_286_2341)"/>
<rect x="313.805" y="569.127" width="50.4012" height="122.403" transform="rotate(-180 313.805 569.127)" fill="url(#paint8_linear_286_2341)"/>
<rect x="453.478" y="309.945" width="50.4012" height="122.403" transform="rotate(-90 453.478 309.945)" fill="url(#paint9_linear_286_2341)"/>
<defs>
<linearGradient id="paint0_linear_286_2341" x1="288.007" y1="36.001" x2="288.007" y2="532.813" gradientUnits="userSpaceOnUse">
<stop stop-color="#ED145B"/>
<stop offset="1" stop-color="#FE0A45"/>
</linearGradient>
<linearGradient id="paint1_linear_286_2341" x1="25.2006" y1="309.945" x2="25.2006" y2="432.348" gradientUnits="userSpaceOnUse">
<stop stop-color="#FF4646"/>
<stop offset="0.78125" stop-color="#ED145B"/>
</linearGradient>
<linearGradient id="paint2_linear_286_2341" x1="339.005" y1="122.402" x2="339.005" y2="244.805" gradientUnits="userSpaceOnUse">
<stop stop-color="#FE0A45"/>
<stop offset="0.78125" stop-color="#ED145B"/>
</linearGradient>
<linearGradient id="paint3_linear_286_2341" x1="339.005" y1="569.127" x2="339.005" y2="691.53" gradientUnits="userSpaceOnUse">
<stop offset="0.729167" stop-color="#FE0A45"/>
<stop offset="1" stop-color="#ED145B"/>
</linearGradient>
<linearGradient id="paint4_linear_286_2341" x1="478.679" y1="309.945" x2="478.679" y2="432.348" gradientUnits="userSpaceOnUse">
<stop offset="0.145833" stop-color="#FE0A45"/>
<stop offset="1" stop-color="#ED145B"/>
</linearGradient>
<linearGradient id="paint5_linear_286_2341" x1="288.007" y1="36.001" x2="288.007" y2="532.813" gradientUnits="userSpaceOnUse">
<stop stop-color="#ED145B"/>
<stop offset="1" stop-color="#FE0A45"/>
</linearGradient>
<linearGradient id="paint6_linear_286_2341" x1="25.2006" y1="309.945" x2="25.2006" y2="432.348" gradientUnits="userSpaceOnUse">
<stop stop-color="#FF4646"/>
<stop offset="0.78125" stop-color="#ED145B"/>
</linearGradient>
<linearGradient id="paint7_linear_286_2341" x1="339.005" y1="122.402" x2="339.005" y2="244.805" gradientUnits="userSpaceOnUse">
<stop stop-color="#FE0A45"/>
<stop offset="0.78125" stop-color="#ED145B"/>
</linearGradient>
<linearGradient id="paint8_linear_286_2341" x1="339.005" y1="569.127" x2="339.005" y2="691.53" gradientUnits="userSpaceOnUse">
<stop offset="0.729167" stop-color="#FE0A45"/>
<stop offset="1" stop-color="#ED145B"/>
</linearGradient>
<linearGradient id="paint9_linear_286_2341" x1="478.679" y1="309.945" x2="478.679" y2="432.348" gradientUnits="userSpaceOnUse">
<stop offset="0.145833" stop-color="#FE0A45"/>
<stop offset="1" stop-color="#ED145B"/>
</linearGradient>
</defs>
</svg>
