<svg width="1600" height="760" viewBox="0 0 1600 760" fill="none" xmlns="http://www.w3.org/2000/svg">
<g clip-path="url(#clip0_481_1325)">
<path d="M1424.05 868.302C1427.57 845.753 1418.35 819.31 1406.62 791.988C1395.32 765.685 1382.88 738.667 1381.91 714.962C1379.91 666.087 1419.38 640.752 1463.06 627.905C1511.9 613.556 1571.24 610.399 1608.74 583.146C1627.14 569.778 1638.87 549.386 1633.21 521.109C1628.51 497.679 1611.1 473.587 1587.86 451.278C1574.65 438.603 1560.42 426.814 1546.07 415.118L1548.96 411.344C1553.03 414.657 1557.1 417.969 1561.1 421.307C1584.41 440.68 1607.98 461.672 1623.57 484.885C1641.28 511.257 1645.51 537.159 1639.44 556.478C1632.03 580.06 1610.96 594.245 1587.04 603.837C1564 613.081 1537.52 618.265 1511.42 623.749C1461.59 634.213 1408.84 647.709 1393.18 691.084C1389.52 701.233 1388.22 712.815 1389.94 725.603C1391.63 738.235 1396.22 751.725 1401.72 765.337C1412.46 791.975 1426.72 819.551 1430.95 844.75C1435.33 870.818 1428.88 893.216 1413.01 907.38C1412.99 907.403 1412.96 907.415 1412.93 907.446L1406.04 902.159C1415.72 893.648 1421.88 882.105 1424.05 868.302Z" fill="url(#paint0_linear_481_1325)"/>
<path d="M1355.38 751.8C1359.06 696.691 1412.82 674.127 1457.27 664.903C1480.15 660.157 1504.99 657.497 1529.02 654.933C1560.13 651.611 1592.3 648.179 1620.41 640.164C1647.85 632.349 1710.06 606.83 1695.35 539.035C1686.87 500.032 1653.2 451.604 1595.26 395.097C1589.81 389.782 1584.23 384.481 1578.63 379.195L1579.23 378.417C1584.91 383.784 1590.58 389.174 1596.12 394.569C1654.4 451.396 1688.27 500.149 1696.8 539.474C1711.65 607.863 1649.04 633.547 1621.44 641.413C1593.26 649.442 1561.05 652.895 1529.89 656.219C1505.88 658.786 1481.06 661.441 1458.23 666.177C1413.99 675.354 1360.49 697.779 1356.85 752.521C1355.55 772.011 1360.72 794.679 1365.72 816.601C1367.8 825.741 1369.89 834.976 1371.54 844.054L1369.95 842.834C1368.32 834.005 1366.28 825.04 1364.26 816.163C1359.24 794.169 1354.06 771.441 1355.38 751.8Z" fill="url(#paint1_linear_481_1325)"/>
<g filter="url(#filter0_f_481_1325)">
<ellipse cx="274.5" cy="509.5" rx="300.5" ry="281.5" fill="url(#paint2_linear_481_1325)" fill-opacity="0.25"/>
</g>
</g>
<defs>
<filter id="filter0_f_481_1325" x="-233.525" y="20.4748" width="1016.05" height="978.05" filterUnits="userSpaceOnUse" color-interpolation-filters="sRGB">
<feFlood flood-opacity="0" result="BackgroundImageFix"/>
<feBlend mode="normal" in="SourceGraphic" in2="BackgroundImageFix" result="shape"/>
<feGaussianBlur stdDeviation="103.763" result="effect1_foregroundBlur_481_1325"/>
</filter>
<linearGradient id="paint0_linear_481_1325" x1="1336.35" y1="848.704" x2="1626.32" y2="470.678" gradientUnits="userSpaceOnUse">
<stop stop-color="#88583F"/>
<stop offset="1" stop-color="#50322C"/>
</linearGradient>
<linearGradient id="paint1_linear_481_1325" x1="1364.75" y1="838.848" x2="1666.55" y2="445.397" gradientUnits="userSpaceOnUse">
<stop stop-color="#88583F"/>
<stop offset="1" stop-color="#50322C"/>
</linearGradient>
<linearGradient id="paint2_linear_481_1325" x1="274.5" y1="228" x2="274.5" y2="791" gradientUnits="userSpaceOnUse">
<stop stop-color="#88583F"/>
<stop offset="1" stop-color="#50322C"/>
</linearGradient>
<clipPath id="clip0_481_1325">
<rect width="1600" height="760" fill="white"/>
</clipPath>
</defs>
</svg>
