<svg width="1600" height="760" viewBox="0 0 1600 760" fill="none" xmlns="http://www.w3.org/2000/svg">
<g clip-path="url(#clip0_481_1313)">
<path d="M159.612 96.193C148.231 115.975 147.336 143.962 148.478 173.675C149.586 202.283 151.498 231.966 143.893 254.439C128.216 300.774 82.2816 310.251 36.8932 306.558C-13.8378 302.419 -70.353 284.064 -115.144 296.035C-137.112 301.909 -155.383 316.729 -160.245 345.155C-164.27 368.71 -156.674 397.445 -142.989 426.611C-135.211 443.183 -126.159 459.295 -116.967 475.362L-121.024 477.846C-123.629 473.294 -126.235 468.742 -128.774 464.19C-143.579 437.739 -158.035 409.688 -164.258 382.423C-171.319 351.452 -165.967 325.759 -153.362 309.908C-137.989 290.555 -113.229 284.88 -87.4619 284.513C-62.6334 284.16 -36.0617 288.825 -9.73236 293.077C40.53 301.198 94.616 307.542 124.796 272.677C131.857 264.518 137.232 254.177 140.217 241.624C143.175 229.227 143.73 214.987 143.489 200.311C143.022 171.591 139.614 140.734 144.715 115.697C149.983 89.794 164.043 71.2041 183.944 63.6828C183.968 63.6678 184.002 63.6673 184.035 63.6473L188.57 71.0555C176.478 75.5241 166.59 84.0881 159.612 96.193Z" fill="url(#paint0_linear_481_1313)"/>
<path d="M181.881 229.582C158.657 279.693 100.385 281.456 55.5871 274.107C32.5297 270.324 8.38988 263.888 -14.9623 257.654C-45.1947 249.585 -76.4523 241.239 -105.562 238.63C-133.974 236.075 -201.206 237.557 -211.808 306.116C-217.902 345.561 -203.858 402.849 -170.063 476.39C-166.889 483.306 -163.579 490.259 -160.253 497.202L-161.089 497.713C-164.469 490.663 -167.825 483.598 -171.054 476.575C-205.049 402.614 -219.167 344.949 -213.01 305.184C-202.313 236.025 -134.662 234.527 -106.074 237.095C-76.8878 239.718 -45.5884 248.058 -15.3135 256.141C8.02151 262.366 32.136 268.797 55.1427 272.571C99.73 279.888 157.71 278.164 180.762 228.379C188.976 210.656 192.283 187.64 195.494 165.387C196.834 156.11 198.196 146.74 199.913 137.674L200.96 139.383C199.309 148.208 197.995 157.308 196.695 166.319C193.488 188.651 190.157 211.72 181.881 229.582Z" fill="url(#paint1_linear_481_1313)"/>
</g>
<defs>
<linearGradient id="paint0_linear_481_1313" x1="234.424" y1="145.965" x2="-171.92" y2="394.698" gradientUnits="userSpaceOnUse">
<stop stop-color="#88583F"/>
<stop offset="1" stop-color="#50322C"/>
</linearGradient>
<linearGradient id="paint1_linear_481_1313" x1="204.379" y1="144.97" x2="-218.544" y2="403.851" gradientUnits="userSpaceOnUse">
<stop stop-color="#88583F"/>
<stop offset="1" stop-color="#50322C"/>
</linearGradient>
<clipPath id="clip0_481_1313">
<rect width="1600" height="760" fill="white"/>
</clipPath>
</defs>
</svg>
