<svg width="1600" height="760" viewBox="0 0 1600 760" fill="none" xmlns="http://www.w3.org/2000/svg">
<g clip-path="url(#clip0_202_108)">
<path d="M88.3551 523.494C79.627 544.581 82.358 572.449 87.3318 601.765C92.1294 629.99 97.8634 659.177 93.2275 682.444C83.6726 730.417 39.3491 745.753 -6.13576 747.959C-56.9761 750.414 -115.39 739.52 -158.257 757.181C-179.281 765.847 -195.483 782.905 -196.629 811.721C-197.575 835.599 -186.327 863.11 -168.987 890.262C-159.132 905.689 -148.072 920.496 -136.879 935.24L-140.581 938.227C-143.754 934.05 -146.926 929.874 -150.032 925.688C-168.133 901.373 -186.094 875.426 -195.79 849.194C-206.796 819.396 -204.811 793.227 -194.361 775.879C-181.619 754.701 -157.801 745.872 -132.297 742.178C-107.723 738.617 -80.7711 739.808 -54.113 740.619C-3.2225 742.175 51.2297 741.472 76.6485 702.998C82.5952 693.995 86.5888 683.045 87.9256 670.211C89.2555 657.537 87.9652 643.344 85.8285 628.822C81.6526 600.403 74.2838 570.247 76.1042 544.76C77.9795 518.393 89.5182 498.142 108.279 488.111C108.302 488.092 108.335 488.088 108.365 488.064L113.819 494.823C102.407 500.818 93.7089 510.588 88.3551 523.494Z" fill="url(#paint0_linear_202_108)"/>
<path d="M127.683 652.885C111.133 705.578 53.5777 714.86 8.20552 713.365C-15.1475 712.595 -39.9168 709.335 -63.879 706.172C-94.9009 702.079 -126.975 697.845 -156.178 699.021C-184.682 700.161 -251.158 710.323 -252.807 779.677C-253.75 819.579 -232.417 874.571 -189.397 943.125C-185.355 949.572 -181.175 956.039 -176.979 962.494L-177.742 963.109C-182.005 956.555 -186.246 949.983 -190.356 943.437C-233.628 874.492 -255.083 819.136 -254.119 778.908C-252.453 708.947 -185.564 698.715 -156.884 697.565C-127.604 696.393 -95.4887 700.616 -64.4229 704.717C-40.4789 707.873 -15.7353 711.132 7.5663 711.9C52.7253 713.391 109.996 704.184 126.418 651.837C132.271 633.2 132.575 609.951 132.881 587.469C133.011 578.097 133.15 568.629 133.681 559.417L134.939 560.977C134.443 569.941 134.317 579.134 134.193 588.238C133.9 610.797 133.58 634.103 127.683 652.885Z" fill="url(#paint1_linear_202_108)"/>
<g filter="url(#filter0_f_202_108)">
<circle cx="1258.25" cy="50.2461" r="458.246" fill="url(#paint2_linear_202_108)" fill-opacity="0.25"/>
</g>
</g>
<defs>
<filter id="filter0_f_202_108" x="558.741" y="-649.259" width="1399.01" height="1399.01" filterUnits="userSpaceOnUse" color-interpolation-filters="sRGB">
<feFlood flood-opacity="0" result="BackgroundImageFix"/>
<feBlend mode="normal" in="SourceGraphic" in2="BackgroundImageFix" result="shape"/>
<feGaussianBlur stdDeviation="120.629" result="effect1_foregroundBlur_202_108"/>
</filter>
<linearGradient id="paint0_linear_202_108" x1="168.974" y1="563.176" x2="-201.801" y2="862.357" gradientUnits="userSpaceOnUse">
<stop stop-color="#FF1A56"/>
<stop offset="1" stop-color="#D80B4B"/>
</linearGradient>
<linearGradient id="paint1_linear_202_108" x1="139.052" y1="566.074" x2="-246.85" y2="877.463" gradientUnits="userSpaceOnUse">
<stop stop-color="#FF1A56"/>
<stop offset="1" stop-color="#D80B4B"/>
</linearGradient>
<linearGradient id="paint2_linear_202_108" x1="1258.25" y1="-408" x2="1258.25" y2="508.492" gradientUnits="userSpaceOnUse">
<stop stop-color="#D80B4B"/>
<stop offset="1" stop-color="#FF1A56"/>
</linearGradient>
<clipPath id="clip0_202_108">
<rect width="1600" height="760" fill="white"/>
</clipPath>
</defs>
</svg>
