<svg width="1600" height="760" viewBox="0 0 1600 760" fill="none" xmlns="http://www.w3.org/2000/svg">
<g clip-path="url(#clip0_385_3152)">
<path d="M1720.65 501.543C1699.51 510.149 1671.66 507.257 1642.37 502.114C1614.17 497.154 1585.02 491.252 1561.73 495.753C1513.7 505.031 1498.11 549.265 1495.64 594.736C1492.89 645.561 1503.45 704.037 1485.54 746.801C1476.75 767.775 1459.6 783.878 1430.78 784.858C1406.9 785.665 1379.45 774.259 1352.4 756.763C1337.03 746.819 1322.29 735.674 1307.61 724.397L1304.6 728.081C1308.76 731.278 1312.92 734.474 1317.08 737.604C1341.29 755.845 1367.14 773.955 1393.31 783.803C1423.04 794.98 1449.22 793.146 1466.63 782.797C1487.88 770.177 1496.85 746.41 1500.69 720.928C1504.39 696.375 1503.36 669.417 1502.7 642.755C1501.44 591.857 1502.46 537.41 1541.08 512.213C1550.12 506.319 1561.09 502.388 1573.93 501.126C1586.61 499.869 1600.8 501.241 1615.31 503.462C1643.7 507.801 1673.81 515.344 1699.31 513.671C1725.69 511.947 1746 500.526 1756.14 481.823C1756.16 481.801 1756.17 481.768 1756.19 481.738L1749.46 476.244C1743.4 487.622 1733.58 496.263 1720.65 501.543Z" fill="url(#paint0_linear_385_3152)"/>
<path d="M1593.98 439.53C1541.19 455.776 1531.58 513.276 1532.81 558.656C1533.45 582.013 1536.57 606.8 1539.59 630.78C1543.5 661.825 1547.55 693.923 1546.21 723.119C1544.9 751.615 1534.36 818.031 1464.99 819.28C1425.09 819.993 1370.22 798.342 1301.92 754.928C1295.49 750.85 1289.05 746.632 1282.62 742.399L1282 743.158C1288.53 747.459 1295.08 751.738 1301.6 755.885C1370.29 799.555 1425.52 821.328 1465.75 820.596C1535.72 819.334 1546.34 752.506 1547.66 723.833C1549 694.56 1544.96 662.421 1541.04 631.332C1538.02 607.371 1534.91 582.609 1534.27 559.303C1533.04 514.137 1542.58 456.921 1595.02 440.801C1613.69 435.055 1636.94 434.886 1659.43 434.709C1668.8 434.634 1678.27 434.549 1687.48 434.072L1685.93 432.804C1676.96 433.249 1667.77 433.322 1658.67 433.393C1636.11 433.556 1612.8 433.741 1593.98 439.53Z" fill="url(#paint1_linear_385_3152)"/>
<path d="M-192.554 265.056C-176.687 248.652 -168.985 221.731 -162.837 192.639C-156.926 164.626 -151.532 135.374 -138.67 115.439C-112.153 74.3344 -65.295 76.3609 -22.1824 91.0252C26.0024 107.426 76.3248 139.026 122.683 138.355C145.42 138.023 166.757 128.113 178.413 101.734C188.068 79.8748 187.718 50.1549 181.57 18.5303C178.074 0.56133 173.23 -17.2742 168.239 -35.0994L172.78 -36.5169C174.195 -31.4668 175.611 -26.4168 176.961 -21.3822C184.859 7.88332 192.028 38.6152 191.405 66.5747C190.689 98.3321 179.226 121.941 163.132 134.234C143.498 149.247 118.102 148.705 93.0256 142.768C68.8622 137.048 44.2342 126.036 19.7399 115.484C-27.0178 95.3347 -77.9176 75.9763 -115.697 102.416C-124.536 108.604 -132.275 117.319 -138.235 128.764C-144.129 140.063 -148.145 153.736 -151.495 168.027C-158.056 195.992 -162.285 226.747 -173.345 249.78C-184.779 273.613 -202.953 288.207 -224.088 290.641C-224.115 290.65 -224.148 290.642 -224.184 290.653L-226.773 282.362C-213.957 280.981 -202.276 275.091 -192.554 265.056Z" fill="url(#paint2_linear_385_3152)"/>
<path d="M-181.578 130.268C-146.821 87.3443 -89.882 99.8638 -48.2344 117.929C-26.7988 127.228 -4.96114 139.363 16.1618 151.111C43.5086 166.318 71.7823 182.044 99.3738 191.682C126.302 201.098 191.86 216.077 218.883 152.183C234.424 115.42 234.793 56.4361 219.979 -23.1313C218.589 -30.6125 217.078 -38.1631 215.548 -45.708L216.483 -46.0001C218.04 -38.3379 219.569 -30.667 220.985 -23.0685C235.891 56.9547 235.501 116.322 219.82 153.38C192.559 217.833 126.591 202.766 99.495 193.296C71.8331 183.625 43.5176 167.895 16.1331 152.664C-4.97558 140.929 -26.7898 128.805 -48.1785 119.527C-89.6294 101.544 -146.276 89.0586 -180.786 131.708C-193.079 146.889 -201.906 168.4 -210.453 189.195C-214.018 197.864 -217.627 206.618 -221.506 214.991L-222.104 213.077C-218.348 204.923 -214.852 196.419 -211.391 187.998C-202.827 167.126 -193.965 145.568 -181.578 130.268Z" fill="url(#paint3_linear_385_3152)"/>
</g>
<defs>
<linearGradient id="paint0_linear_385_3152" x1="1681.43" y1="420.697" x2="1380.11" y2="789.737" gradientUnits="userSpaceOnUse">
<stop stop-color="#FF1A56"/>
<stop offset="1" stop-color="#D80B4B"/>
</linearGradient>
<linearGradient id="paint1_linear_385_3152" x1="1680.86" y1="428.662" x2="1367.24" y2="812.759" gradientUnits="userSpaceOnUse">
<stop stop-color="#FF1A56"/>
<stop offset="1" stop-color="#D80B4B"/>
</linearGradient>
<linearGradient id="paint2_linear_385_3152" x1="-252.947" y1="198.523" x2="201.832" y2="56.542" gradientUnits="userSpaceOnUse">
<stop stop-color="#FF1A56"/>
<stop offset="1" stop-color="#D80B4B"/>
</linearGradient>
<linearGradient id="paint3_linear_385_3152" x1="-224.055" y1="206.825" x2="249.28" y2="59.0511" gradientUnits="userSpaceOnUse">
<stop stop-color="#FF1A56"/>
<stop offset="1" stop-color="#D80B4B"/>
</linearGradient>
<clipPath id="clip0_385_3152">
<rect width="1600" height="760" fill="white"/>
</clipPath>
</defs>
</svg>
