<svg width="1600" height="760" viewBox="0 0 1600 760" fill="none" xmlns="http://www.w3.org/2000/svg">
<g clip-path="url(#clip0_481_1308)">
<path d="M1435.16 225.347C1451.41 204.827 1457.15 173.231 1460.87 139.332C1464.45 106.692 1467.29 72.6972 1479.71 48.4886C1505.31 -1.42734 1559.02 -4.42386 1609.88 7.42706C1666.73 20.6854 1727.75 51.0469 1780.58 45.0283C1806.49 42.0729 1829.72 28.3453 1840.03 -3.08035C1848.57 -29.1213 1844.81 -62.9999 1834.2 -98.3952C1828.18 -118.506 1820.63 -138.313 1812.91 -158.09L1817.94 -160.223C1820.12 -154.62 1822.31 -149.016 1824.42 -143.424C1836.75 -110.919 1848.42 -76.658 1850.87 -44.6783C1853.65 -8.35366 1843.25 19.8888 1826.27 35.7421C1805.57 55.1012 1776.52 57.3593 1747.23 53.4251C1719 49.6354 1689.65 39.8576 1660.5 30.5905C1604.85 12.8931 1544.57 -3.43259 1504.45 31.023C1495.06 39.0863 1487.22 49.9096 1481.71 63.6464C1476.27 77.2091 1473.23 93.2692 1471.03 109.959C1466.71 142.617 1465.37 178.196 1455.36 205.736C1445.01 234.231 1425.92 252.946 1402.07 258.118C1402.04 258.131 1402.01 258.126 1401.97 258.143L1398.07 248.974C1412.54 245.946 1425.21 237.9 1435.16 225.347Z" fill="url(#paint0_linear_481_1308)"/>
<path d="M1432.42 70.2713C1467.22 17.3459 1533.62 25.1825 1583.2 41.0806C1608.72 49.2646 1635.02 60.6396 1660.45 71.6537C1693.39 85.9105 1727.44 100.654 1760.02 108.528C1791.82 116.222 1868.33 125.889 1891.93 49.9069C1905.5 6.18988 1899.24 -61.1679 1873.32 -150.297C1870.89 -158.677 1868.31 -167.123 1865.71 -175.56L1866.74 -176C1869.38 -167.432 1872 -158.85 1874.48 -150.339C1900.56 -60.7003 1906.84 7.09749 1893.14 51.1667C1869.33 127.814 1792.34 118.093 1760.34 110.355C1727.67 102.453 1693.58 87.7088 1660.6 73.4287C1635.18 62.4284 1608.91 51.0629 1583.45 42.8978C1534.1 27.0711 1468.04 19.2406 1433.49 71.8249C1421.18 90.543 1413.54 116.093 1406.14 140.794C1403.06 151.092 1399.93 161.492 1396.45 171.486L1395.55 169.37C1398.91 159.639 1401.94 149.538 1404.94 139.535C1412.34 114.743 1420.02 89.1359 1432.42 70.2713Z" fill="url(#paint1_linear_481_1308)"/>
</g>
<defs>
<linearGradient id="paint0_linear_481_1308" x1="1358.7" y1="156.257" x2="1861.64" y2="-57.3097" gradientUnits="userSpaceOnUse">
<stop stop-color="#88583F"/>
<stop offset="1" stop-color="#50322C"/>
</linearGradient>
<linearGradient id="paint1_linear_481_1308" x1="1392.62" y1="162.456" x2="1916.07" y2="-59.8249" gradientUnits="userSpaceOnUse">
<stop stop-color="#88583F"/>
<stop offset="1" stop-color="#50322C"/>
</linearGradient>
<clipPath id="clip0_481_1308">
<rect width="1600" height="760" fill="white"/>
</clipPath>
</defs>
</svg>
