<svg width="1600" height="760" viewBox="0 0 1600 760" fill="none" xmlns="http://www.w3.org/2000/svg">
<g clip-path="url(#clip0_483_1720)">
<path d="M159.612 96.1931C148.231 115.975 147.336 143.962 148.478 173.675C149.586 202.283 151.498 231.966 143.893 254.439C128.216 300.774 82.2816 310.251 36.8932 306.558C-13.8378 302.419 -70.353 284.064 -115.144 296.035C-137.112 301.909 -155.383 316.729 -160.245 345.155C-164.27 368.71 -156.674 397.445 -142.989 426.611C-135.211 443.183 -126.159 459.295 -116.967 475.362L-121.024 477.846C-123.629 473.294 -126.235 468.743 -128.774 464.19C-143.579 437.739 -158.035 409.688 -164.258 382.423C-171.319 351.452 -165.967 325.759 -153.362 309.908C-137.989 290.555 -113.229 284.88 -87.4619 284.513C-62.6334 284.16 -36.0617 288.825 -9.73236 293.077C40.53 301.198 94.616 307.542 124.796 272.677C131.857 264.518 137.232 254.177 140.217 241.624C143.175 229.227 143.73 214.987 143.489 200.311C143.022 171.591 139.614 140.734 144.715 115.697C149.983 89.794 164.043 71.2042 183.944 63.6828C183.968 63.6678 184.002 63.6674 184.035 63.6473L188.57 71.0556C176.478 75.5242 166.59 84.0881 159.612 96.1931Z" fill="url(#paint0_linear_483_1720)"/>
<path d="M181.881 229.582C158.657 279.693 100.385 281.456 55.5871 274.107C32.5297 270.324 8.38988 263.888 -14.9623 257.654C-45.1947 249.585 -76.4523 241.239 -105.562 238.63C-133.974 236.075 -201.206 237.557 -211.808 306.116C-217.902 345.561 -203.858 402.849 -170.063 476.391C-166.889 483.306 -163.579 490.259 -160.253 497.202L-161.089 497.714C-164.469 490.663 -167.825 483.598 -171.054 476.575C-205.049 402.614 -219.167 344.949 -213.01 305.184C-202.313 236.025 -134.662 234.527 -106.074 237.095C-76.8878 239.718 -45.5884 248.058 -15.3135 256.141C8.02151 262.366 32.136 268.797 55.1427 272.571C99.73 279.888 157.71 278.164 180.762 228.379C188.976 210.656 192.283 187.64 195.494 165.387C196.834 156.11 198.196 146.74 199.913 137.674L200.96 139.383C199.309 148.208 197.995 157.308 196.695 166.319C193.488 188.651 190.157 211.72 181.881 229.582Z" fill="url(#paint1_linear_483_1720)"/>
<path d="M1720.53 775.97C1702.6 761.846 1675.04 756.909 1645.47 753.738C1617 750.694 1587.36 748.289 1566.22 737.512C1522.64 715.293 1519.91 668.47 1530.14 624.095C1541.58 574.497 1567.92 521.234 1562.56 475.182C1559.92 452.595 1547.9 432.371 1520.48 423.446C1497.76 416.054 1468.23 419.411 1437.39 428.73C1419.86 434.027 1402.61 440.651 1385.38 447.422L1383.51 443.048C1388.39 441.128 1393.27 439.209 1398.15 437.356C1426.46 426.535 1456.31 416.292 1484.19 414.08C1515.85 411.577 1540.5 420.592 1554.36 435.358C1571.29 453.37 1573.32 478.691 1569.95 504.24C1566.71 528.858 1558.24 554.475 1550.23 579.911C1534.92 628.469 1520.81 681.067 1550.94 715.975C1557.99 724.143 1567.44 730.959 1579.43 735.729C1591.27 740.45 1605.28 743.061 1619.84 744.946C1648.32 748.642 1679.35 749.736 1703.38 758.406C1728.25 767.369 1744.61 783.972 1749.17 804.751C1749.18 804.778 1749.18 804.811 1749.19 804.846L1741.21 808.261C1738.54 795.65 1731.49 784.626 1720.53 775.97Z" fill="url(#paint2_linear_483_1720)"/>
<path d="M1585.32 778.698C1539.1 748.465 1545.79 690.551 1559.54 647.289C1566.62 625.022 1576.48 602.068 1586.03 579.864C1598.39 551.118 1611.17 521.397 1617.97 492.971C1624.61 465.229 1632.88 398.49 1566.57 378.076C1528.43 366.337 1469.71 371.942 1392.05 394.736C1384.75 396.876 1377.39 399.144 1370.04 401.43L1369.65 400.529C1377.12 398.205 1384.59 395.907 1392.01 393.729C1470.11 370.797 1529.21 365.174 1567.67 377.022C1634.55 397.617 1626.24 464.772 1619.56 492.688C1612.74 521.186 1599.96 550.949 1587.58 579.735C1578.04 601.923 1568.19 624.853 1561.13 647.071C1547.43 690.13 1540.75 747.749 1586.67 777.764C1603.02 788.457 1625.31 795.061 1646.87 801.458C1655.85 804.127 1664.93 806.831 1673.65 809.843L1671.8 810.631C1663.31 807.72 1654.5 805.103 1645.77 802.512C1624.14 796.106 1601.79 789.472 1585.32 778.698Z" fill="url(#paint3_linear_483_1720)"/>
</g>
<defs>
<linearGradient id="paint0_linear_483_1720" x1="234.424" y1="145.965" x2="-171.92" y2="394.698" gradientUnits="userSpaceOnUse">
<stop stop-color="#88583F"/>
<stop offset="1" stop-color="#50322C"/>
</linearGradient>
<linearGradient id="paint1_linear_483_1720" x1="204.379" y1="144.97" x2="-218.544" y2="403.851" gradientUnits="userSpaceOnUse">
<stop stop-color="#88583F"/>
<stop offset="1" stop-color="#50322C"/>
</linearGradient>
<linearGradient id="paint2_linear_483_1720" x1="1660.45" y1="842.79" x2="1473.15" y2="404.723" gradientUnits="userSpaceOnUse">
<stop stop-color="#88583F"/>
<stop offset="1" stop-color="#50322C"/>
</linearGradient>
<linearGradient id="paint3_linear_483_1720" x1="1665.78" y1="813.206" x2="1470.84" y2="357.265" gradientUnits="userSpaceOnUse">
<stop stop-color="#88583F"/>
<stop offset="1" stop-color="#50322C"/>
</linearGradient>
<clipPath id="clip0_483_1720">
<rect width="1600" height="760" fill="white"/>
</clipPath>
</defs>
</svg>
