<svg width="1600" height="760" viewBox="0 0 1600 760" fill="none" xmlns="http://www.w3.org/2000/svg">
<g clip-path="url(#clip0_483_1732)">
<path d="M1424.05 868.302C1427.57 845.753 1418.36 819.31 1406.62 791.988C1395.32 765.685 1382.88 738.667 1381.91 714.962C1379.91 666.087 1419.38 640.752 1463.06 627.905C1511.9 613.556 1571.24 610.399 1608.75 583.146C1627.14 569.778 1638.87 549.386 1633.21 521.109C1628.51 497.679 1611.1 473.587 1587.86 451.278C1574.65 438.603 1560.42 426.814 1546.07 415.118L1548.96 411.344C1553.03 414.657 1557.1 417.969 1561.1 421.307C1584.41 440.68 1607.98 461.672 1623.57 484.885C1641.28 511.257 1645.51 537.159 1639.44 556.478C1632.03 580.06 1610.96 594.245 1587.04 603.837C1564 613.081 1537.52 618.265 1511.42 623.749C1461.59 634.213 1408.84 647.709 1393.19 691.084C1389.52 701.233 1388.22 712.815 1389.94 725.603C1391.63 738.235 1396.22 751.725 1401.72 765.337C1412.46 791.975 1426.72 819.551 1430.95 844.75C1435.33 870.818 1428.88 893.216 1413.01 907.38C1412.99 907.403 1412.96 907.415 1412.94 907.446L1406.04 902.159C1415.72 893.648 1421.88 882.105 1424.05 868.302Z" fill="url(#paint0_linear_483_1732)"/>
<path d="M1355.38 751.8C1359.06 696.691 1412.82 674.127 1457.27 664.903C1480.15 660.157 1504.99 657.498 1529.02 654.933C1560.13 651.611 1592.3 648.179 1620.41 640.165C1647.85 632.35 1710.06 606.83 1695.35 539.035C1686.87 500.032 1653.2 451.605 1595.26 395.098C1589.81 389.783 1584.23 384.481 1578.63 379.195L1579.23 378.418C1584.91 383.784 1590.58 389.174 1596.12 394.569C1654.4 451.396 1688.27 500.149 1696.8 539.474C1711.65 607.863 1649.04 633.547 1621.44 641.414C1593.26 649.443 1561.05 652.895 1529.89 656.219C1505.88 658.786 1481.06 661.441 1458.23 666.177C1413.99 675.354 1360.5 697.779 1356.85 752.521C1355.55 772.011 1360.72 794.679 1365.72 816.601C1367.8 825.741 1369.89 834.976 1371.54 844.054L1369.95 842.834C1368.32 834.005 1366.28 825.04 1364.26 816.163C1359.24 794.169 1354.06 771.441 1355.38 751.8Z" fill="url(#paint1_linear_483_1732)"/>
<path d="M-98.0899 468.15C-97.1405 445.347 -109.282 420.115 -124.028 394.294C-138.233 369.437 -153.648 343.999 -157.291 320.555C-164.805 272.22 -128.451 242.586 -86.4949 224.882C-39.5948 205.105 19.0052 195.261 53.192 163.943C69.9575 148.581 79.3106 126.994 70.4836 99.5386C63.1655 76.7905 43.1484 54.8199 17.5329 35.2811C2.97647 24.1808 -12.4979 14.076 -28.0758 4.07704L-25.6261 -0.000100749C-21.2116 2.83169 -16.7971 5.6635 -12.4417 8.52706C12.913 25.1402 38.6971 43.3341 56.8175 64.636C77.3934 88.8368 84.5226 114.095 80.6711 133.977C75.9837 158.244 56.6502 174.72 33.9694 186.955C12.1155 198.744 -13.604 206.888 -38.9173 215.287C-87.2427 231.316 -138.137 250.689 -148.785 295.555C-151.276 306.054 -151.263 317.709 -148.108 330.221C-145.001 342.58 -138.912 355.465 -131.915 368.368C-118.227 393.621 -100.943 419.409 -93.8937 443.968C-86.5934 469.374 -90.4696 492.357 -104.641 508.225C-104.655 508.25 -104.685 508.265 -104.705 508.298L-112.15 503.825C-103.493 494.274 -98.6824 482.109 -98.0899 468.15Z" fill="url(#paint2_linear_483_1732)"/>
</g>
<defs>
<linearGradient id="paint0_linear_483_1732" x1="1336.35" y1="848.704" x2="1626.32" y2="470.678" gradientUnits="userSpaceOnUse">
<stop stop-color="#88583F"/>
<stop offset="1" stop-color="#50322C"/>
</linearGradient>
<linearGradient id="paint1_linear_483_1732" x1="1364.75" y1="838.848" x2="1666.55" y2="445.397" gradientUnits="userSpaceOnUse">
<stop stop-color="#88583F"/>
<stop offset="1" stop-color="#50322C"/>
</linearGradient>
<linearGradient id="paint2_linear_483_1732" x1="-187.435" y1="458.59" x2="57.9384" y2="50.2093" gradientUnits="userSpaceOnUse">
<stop stop-color="#88583F"/>
<stop offset="1" stop-color="#50322C"/>
</linearGradient>
<clipPath id="clip0_483_1732">
<rect width="1600" height="760" fill="white"/>
</clipPath>
</defs>
</svg>
