<svg width="1600" height="760" viewBox="0 0 1600 760" fill="none" xmlns="http://www.w3.org/2000/svg">
<g clip-path="url(#clip0_202_127)">
<path d="M1435.16 225.346C1451.41 204.827 1457.15 173.23 1460.87 139.332C1464.45 106.692 1467.29 72.697 1479.71 48.4884C1505.31 -1.42759 1559.02 -4.42411 1609.88 7.42681C1666.73 20.6852 1727.75 51.0466 1780.58 45.0281C1806.49 42.0727 1829.72 28.3451 1840.03 -3.0806C1848.57 -29.1215 1844.81 -63.0001 1834.2 -98.3954C1828.18 -118.507 1820.63 -138.313 1812.91 -158.091L1817.94 -160.223C1820.12 -154.62 1822.31 -149.017 1824.42 -143.424C1836.75 -110.919 1848.42 -76.6583 1850.87 -44.6786C1853.65 -8.35391 1843.25 19.8886 1826.27 35.7419C1805.57 55.1009 1776.52 57.3591 1747.23 53.4248C1719 49.6352 1689.65 39.8574 1660.5 30.5903C1604.85 12.8929 1544.57 -3.43284 1504.45 31.0228C1495.06 39.086 1487.22 49.9094 1481.71 63.6461C1476.27 77.2089 1473.23 93.269 1471.03 109.959C1466.71 142.617 1465.37 178.195 1455.36 205.736C1445.01 234.231 1425.92 252.945 1402.07 258.118C1402.04 258.131 1402.01 258.126 1401.97 258.143L1398.07 248.974C1412.54 245.946 1425.21 237.9 1435.16 225.346Z" fill="url(#paint0_linear_202_127)"/>
<path d="M1432.42 70.2711C1467.22 17.3457 1533.62 25.1822 1583.2 41.0803C1608.72 49.2644 1635.02 60.6393 1660.45 71.6535C1693.39 85.9102 1727.44 100.653 1760.02 108.528C1791.82 116.222 1868.33 125.889 1891.93 49.9066C1905.5 6.18964 1899.24 -61.1681 1873.32 -150.297C1870.89 -158.677 1868.31 -167.123 1865.71 -175.561L1866.74 -176C1869.38 -167.432 1872 -158.851 1874.48 -150.339C1900.56 -60.7006 1906.84 7.09725 1893.14 51.1665C1869.33 127.814 1792.34 118.093 1760.34 110.355C1727.67 102.453 1693.58 87.7085 1660.6 73.4285C1635.18 62.4281 1608.91 51.0627 1583.45 42.8975C1534.1 27.0709 1468.04 19.2404 1433.49 71.8246C1421.18 90.5428 1413.54 116.093 1406.14 140.794C1403.06 151.092 1399.93 161.492 1396.45 171.486L1395.55 169.37C1398.91 159.638 1401.94 149.537 1404.94 139.534C1412.34 114.743 1420.02 89.1356 1432.42 70.2711Z" fill="url(#paint1_linear_202_127)"/>
</g>
<defs>
<linearGradient id="paint0_linear_202_127" x1="1358.7" y1="156.257" x2="1861.64" y2="-57.31" gradientUnits="userSpaceOnUse">
<stop stop-color="#FF1A56"/>
<stop offset="1" stop-color="#D80B4B"/>
</linearGradient>
<linearGradient id="paint1_linear_202_127" x1="1392.62" y1="162.456" x2="1916.07" y2="-59.8251" gradientUnits="userSpaceOnUse">
<stop stop-color="#FF1A56"/>
<stop offset="1" stop-color="#D80B4B"/>
</linearGradient>
<clipPath id="clip0_202_127">
<rect width="1600" height="760" fill="white"/>
</clipPath>
</defs>
</svg>
