<svg width="1600" height="760" viewBox="0 0 1600 760" fill="none" xmlns="http://www.w3.org/2000/svg">
<g clip-path="url(#clip0_481_1318)">
<path d="M1424.05 868.302C1427.57 845.753 1418.35 819.31 1406.62 791.988C1395.32 765.685 1382.88 738.667 1381.91 714.962C1379.91 666.087 1419.38 640.752 1463.06 627.905C1511.9 613.556 1571.24 610.399 1608.74 583.146C1627.14 569.778 1638.87 549.386 1633.21 521.109C1628.51 497.679 1611.1 473.587 1587.86 451.278C1574.65 438.603 1560.42 426.814 1546.07 415.118L1548.96 411.344C1553.03 414.657 1557.1 417.969 1561.1 421.307C1584.41 440.68 1607.98 461.672 1623.57 484.885C1641.28 511.257 1645.51 537.159 1639.44 556.478C1632.03 580.06 1610.96 594.245 1587.04 603.837C1564 613.081 1537.52 618.265 1511.42 623.749C1461.59 634.213 1408.84 647.709 1393.18 691.084C1389.52 701.233 1388.22 712.815 1389.94 725.603C1391.63 738.235 1396.22 751.725 1401.72 765.337C1412.46 791.975 1426.72 819.551 1430.95 844.75C1435.33 870.818 1428.88 893.216 1413.01 907.38C1412.99 907.403 1412.96 907.415 1412.93 907.446L1406.04 902.159C1415.72 893.648 1421.88 882.105 1424.05 868.302Z" fill="url(#paint0_linear_481_1318)"/>
<path d="M1355.38 751.8C1359.06 696.691 1412.82 674.127 1457.27 664.903C1480.15 660.157 1504.99 657.498 1529.02 654.933C1560.13 651.611 1592.3 648.179 1620.41 640.165C1647.85 632.35 1710.06 606.83 1695.35 539.035C1686.87 500.032 1653.2 451.605 1595.26 395.098C1589.81 389.783 1584.23 384.481 1578.63 379.195L1579.23 378.418C1584.91 383.784 1590.58 389.174 1596.12 394.569C1654.4 451.396 1688.27 500.149 1696.8 539.474C1711.65 607.863 1649.04 633.547 1621.44 641.414C1593.26 649.443 1561.05 652.895 1529.89 656.219C1505.88 658.786 1481.06 661.441 1458.23 666.177C1413.99 675.354 1360.49 697.779 1356.85 752.521C1355.55 772.011 1360.72 794.679 1365.72 816.601C1367.8 825.741 1369.89 834.976 1371.54 844.054L1369.95 842.834C1368.32 834.005 1366.28 825.04 1364.26 816.163C1359.24 794.169 1354.06 771.441 1355.38 751.8Z" fill="url(#paint1_linear_481_1318)"/>
<path d="M106.612 202.086C95.2309 221.868 94.336 249.855 95.4778 279.568C96.5859 308.176 98.4982 337.859 90.893 360.332C75.2158 406.667 29.2815 416.144 -16.1069 412.451C-66.8379 408.312 -123.353 389.957 -168.144 401.928C-190.112 407.802 -208.383 422.622 -213.245 451.049C-217.27 474.603 -209.674 503.338 -195.989 532.504C-188.211 549.076 -179.16 565.189 -169.967 581.256L-174.024 583.739C-176.629 579.187 -179.235 574.636 -181.774 570.083C-196.58 543.632 -211.035 515.581 -217.258 488.316C-224.319 457.345 -218.967 431.652 -206.362 415.801C-190.989 396.448 -166.229 390.773 -140.462 390.407C-115.633 390.053 -89.0619 394.718 -62.7325 398.97C-12.4701 407.091 41.6159 413.435 71.7956 378.57C78.8565 370.412 84.2322 360.07 87.2171 347.517C90.1745 335.121 90.73 320.88 90.4888 306.204C90.0223 277.484 86.6143 246.627 91.7146 221.59C96.9831 195.687 111.043 177.097 130.944 169.576C130.968 169.561 131.002 169.561 131.035 169.54L135.569 176.949C123.478 181.417 113.59 189.981 106.612 202.086Z" fill="url(#paint2_linear_481_1318)"/>
<path d="M128.881 335.475C105.657 385.586 47.3851 387.349 2.587 380C-20.4704 376.217 -44.6102 369.782 -67.9624 363.547C-98.1948 355.478 -129.452 347.132 -158.562 344.523C-186.974 341.968 -254.206 343.45 -264.808 412.009C-270.902 451.454 -256.858 508.742 -223.063 582.284C-219.889 589.199 -216.579 596.152 -213.253 603.095L-214.089 603.607C-217.469 596.556 -220.825 589.491 -224.054 582.468C-258.049 508.508 -272.167 450.842 -266.01 411.077C-255.313 341.918 -187.662 340.421 -159.074 342.988C-129.888 345.611 -98.5885 353.951 -68.3137 362.035C-44.9786 368.26 -20.8641 374.69 2.14262 378.465C46.7298 385.782 104.71 384.057 127.762 334.272C135.976 316.549 139.283 293.534 142.493 271.281C143.834 262.003 145.196 252.633 146.913 243.567L147.959 245.277C146.308 254.101 144.995 263.201 143.695 272.212C140.487 294.544 137.157 317.614 128.881 335.475Z" fill="url(#paint3_linear_481_1318)"/>
</g>
<defs>
<linearGradient id="paint0_linear_481_1318" x1="1336.35" y1="848.704" x2="1626.32" y2="470.678" gradientUnits="userSpaceOnUse">
<stop stop-color="#88583F"/>
<stop offset="1" stop-color="#50322C"/>
</linearGradient>
<linearGradient id="paint1_linear_481_1318" x1="1364.75" y1="838.848" x2="1666.55" y2="445.397" gradientUnits="userSpaceOnUse">
<stop stop-color="#88583F"/>
<stop offset="1" stop-color="#50322C"/>
</linearGradient>
<linearGradient id="paint2_linear_481_1318" x1="181.423" y1="251.859" x2="-224.92" y2="500.591" gradientUnits="userSpaceOnUse">
<stop stop-color="#88583F"/>
<stop offset="1" stop-color="#50322C"/>
</linearGradient>
<linearGradient id="paint3_linear_481_1318" x1="151.379" y1="250.863" x2="-271.544" y2="509.744" gradientUnits="userSpaceOnUse">
<stop stop-color="#88583F"/>
<stop offset="1" stop-color="#50322C"/>
</linearGradient>
<clipPath id="clip0_481_1318">
<rect width="1600" height="760" fill="white"/>
</clipPath>
</defs>
</svg>
