<svg width="1600" height="760" viewBox="0 0 1600 760" fill="none" xmlns="http://www.w3.org/2000/svg">
<g clip-path="url(#clip0_481_1338)">
<path d="M1455.71 726.134C1464.65 705.132 1462.18 677.239 1457.49 647.877C1452.97 619.607 1447.52 590.366 1452.38 567.145C1462.4 519.266 1506.87 504.359 1552.37 502.593C1603.23 500.63 1661.54 512.089 1704.58 494.843C1725.68 486.382 1742.05 469.481 1743.47 440.678C1744.65 416.81 1733.67 389.191 1716.59 361.873C1706.89 346.351 1695.97 331.438 1684.92 316.587L1688.65 313.636C1691.78 317.843 1694.92 322.05 1697.98 326.265C1715.85 350.754 1733.55 376.873 1743 403.198C1753.71 433.101 1751.48 459.25 1740.86 476.496C1727.91 497.55 1704.01 506.147 1678.47 509.595C1653.86 512.918 1626.92 511.467 1600.28 510.397C1549.4 508.35 1494.95 508.525 1469.16 546.752C1463.12 555.697 1459.02 566.607 1457.56 579.428C1456.11 592.089 1457.26 606.293 1459.26 620.835C1463.16 649.293 1470.24 679.52 1468.17 704.987C1466.04 731.335 1454.31 751.474 1435.45 761.323C1435.43 761.341 1435.39 761.345 1435.36 761.369L1429.97 754.557C1441.44 748.673 1450.24 738.987 1455.71 726.134Z" fill="url(#paint0_linear_481_1338)"/>
<path d="M1417.64 596.37C1434.7 543.839 1492.34 535.114 1537.7 537.048C1561.04 538.045 1585.78 541.544 1609.71 544.939C1640.69 549.332 1672.72 553.876 1701.93 552.983C1730.45 552.118 1797.02 542.6 1799.34 473.265C1800.67 433.374 1779.87 378.178 1737.51 309.211C1733.53 302.725 1729.42 296.218 1725.28 289.723L1726.05 289.115C1730.25 295.71 1734.43 302.323 1738.47 308.909C1781.08 378.269 1802 433.83 1800.64 474.046C1798.3 543.988 1731.32 553.572 1702.63 554.445C1673.34 555.334 1641.26 550.8 1610.24 546.399C1586.33 543.011 1561.61 539.513 1538.32 538.52C1493.18 536.592 1435.82 545.244 1418.89 597.43C1412.86 616.009 1412.33 639.255 1411.81 661.732C1411.59 671.103 1411.36 680.569 1410.74 689.775L1409.49 688.203C1410.08 679.245 1410.29 670.053 1410.5 660.951C1411.02 638.396 1411.56 615.094 1417.64 596.37Z" fill="url(#paint1_linear_481_1338)"/>
<path d="M116.612 111.086C105.231 130.868 104.336 158.855 105.478 188.568C106.586 217.176 108.498 246.859 100.893 269.332C85.2158 315.667 39.2815 325.144 -6.10688 321.451C-56.8379 317.312 -113.353 298.957 -158.144 310.928C-180.112 316.802 -198.383 331.622 -203.245 360.049C-207.27 383.603 -199.674 412.338 -185.989 441.504C-178.211 458.076 -169.16 474.189 -159.967 490.256L-164.024 492.739C-166.629 488.187 -169.235 483.636 -171.774 479.083C-186.58 452.632 -201.035 424.581 -207.258 397.316C-214.319 366.345 -208.967 340.652 -196.362 324.801C-180.989 305.448 -156.229 299.773 -130.462 299.407C-105.633 299.053 -79.0619 303.718 -52.7325 307.97C-2.47015 316.091 51.6159 322.435 81.7956 287.57C88.8565 279.412 94.2322 269.07 97.2171 256.517C100.175 244.121 100.73 229.88 100.489 215.204C100.022 186.484 96.6143 155.627 101.715 130.59C106.983 104.687 121.043 86.0974 140.944 78.576C140.968 78.561 141.002 78.5606 141.035 78.5405L145.569 85.9488C133.478 90.4174 123.59 98.9813 116.612 111.086Z" fill="url(#paint2_linear_481_1338)"/>
<path d="M138.881 244.475C115.657 294.586 57.3851 296.349 12.587 289C-10.4704 285.217 -34.6102 278.782 -57.9624 272.547C-88.1948 264.478 -119.452 256.132 -148.562 253.523C-176.974 250.968 -244.206 252.45 -254.808 321.009C-260.902 360.454 -246.858 417.742 -213.063 491.284C-209.889 498.199 -206.579 505.152 -203.253 512.095L-204.089 512.607C-207.469 505.556 -210.825 498.491 -214.054 491.468C-248.049 417.508 -262.167 359.842 -256.01 320.077C-245.313 250.918 -177.662 249.421 -149.074 251.988C-119.888 254.611 -88.5885 262.951 -58.3137 271.035C-34.9786 277.26 -10.8641 283.69 12.1426 287.465C56.7298 294.782 114.71 293.057 137.762 243.272C145.976 225.549 149.283 202.534 152.493 180.281C153.834 171.003 155.196 161.633 156.913 152.567L157.959 154.277C156.308 163.101 154.995 172.201 153.695 181.212C150.487 203.544 147.157 226.614 138.881 244.475Z" fill="url(#paint3_linear_481_1338)"/>
<g filter="url(#filter0_f_481_1338)">
<ellipse cx="772" cy="979.5" rx="1091" ry="281.5" fill="url(#paint4_linear_481_1338)" fill-opacity="0.25"/>
</g>
</g>
<defs>
<filter id="filter0_f_481_1338" x="-526.525" y="490.475" width="2597.05" height="978.05" filterUnits="userSpaceOnUse" color-interpolation-filters="sRGB">
<feFlood flood-opacity="0" result="BackgroundImageFix"/>
<feBlend mode="normal" in="SourceGraphic" in2="BackgroundImageFix" result="shape"/>
<feGaussianBlur stdDeviation="103.763" result="effect1_foregroundBlur_481_1338"/>
</filter>
<linearGradient id="paint0_linear_481_1338" x1="1375.48" y1="685.674" x2="1749.13" y2="390.094" gradientUnits="userSpaceOnUse">
<stop stop-color="#88583F"/>
<stop offset="1" stop-color="#50322C"/>
</linearGradient>
<linearGradient id="paint1_linear_481_1338" x1="1405.43" y1="683.067" x2="1794.33" y2="375.426" gradientUnits="userSpaceOnUse">
<stop stop-color="#88583F"/>
<stop offset="1" stop-color="#50322C"/>
</linearGradient>
<linearGradient id="paint2_linear_481_1338" x1="191.423" y1="160.859" x2="-214.92" y2="409.591" gradientUnits="userSpaceOnUse">
<stop stop-color="#88583F"/>
<stop offset="1" stop-color="#50322C"/>
</linearGradient>
<linearGradient id="paint3_linear_481_1338" x1="161.379" y1="159.863" x2="-261.544" y2="418.744" gradientUnits="userSpaceOnUse">
<stop stop-color="#88583F"/>
<stop offset="1" stop-color="#50322C"/>
</linearGradient>
<linearGradient id="paint4_linear_481_1338" x1="772" y1="698" x2="772" y2="1261" gradientUnits="userSpaceOnUse">
<stop stop-color="#88583F"/>
<stop offset="1" stop-color="#50322C"/>
</linearGradient>
<clipPath id="clip0_481_1338">
<rect width="1600" height="760" fill="white"/>
</clipPath>
</defs>
</svg>
